<svg width="284" height="314" viewBox="0 0 284 314" fill="none" xmlns="http://www.w3.org/2000/svg">
<path fill-rule="evenodd" clip-rule="evenodd" d="M107.756 140.927C104.421 144.082 103.154 148.993 106.332 152.782C109.325 156.351 115.119 157.108 118.856 154.262C127.88 147.398 118.475 134.73 108.736 137.352C106.93 137.837 107.382 140.371 109.162 140.471C112.011 140.63 115.057 140.739 117.333 142.704C119.777 144.818 119.83 148.391 117.825 150.821C112.518 157.254 103.297 147.781 108.871 142.029C109.576 141.303 108.492 140.231 107.756 140.927Z" fill="#7CABFF"/>
<path fill-rule="evenodd" clip-rule="evenodd" d="M201.528 152.315C202.72 156.874 204.029 161.384 205.389 165.892C205.718 166.977 206.713 167.316 207.615 166.682C211.164 164.193 214.718 161.746 218.079 158.99C218.726 158.46 218.585 157.392 217.945 156.938C214.008 154.148 208.689 150.03 203.692 150C202.422 149.994 201.533 151.839 202.821 152.607C204.84 153.807 207.254 154.235 209.407 155.16C211.895 156.226 214.357 157.477 216.549 159.097C216.601 158.349 216.648 157.598 216.698 156.85C212.938 159.242 209.401 161.919 205.825 164.587C206.529 164.732 207.233 164.879 207.937 165.024C206.411 160.572 204.846 156.149 203.155 151.761C202.798 150.836 201.274 151.343 201.528 152.315Z" fill="#FF7081"/>
<path fill-rule="evenodd" clip-rule="evenodd" d="M226.912 174.89C232.33 172.343 237.874 169.415 242.755 165.977C244.546 164.714 242.781 162.25 240.892 163.222C235.674 165.904 230.588 169.371 225.933 172.907C225.001 173.617 225.687 175.467 226.912 174.89Z" fill="#FBC580"/>
<path fill-rule="evenodd" clip-rule="evenodd" d="M26.4774 192.91C25.3478 187.274 23.8776 181.424 21.7348 176.061C20.9479 174.09 18.0753 175.113 18.5533 177.101C19.867 182.588 21.9844 188.147 24.2796 193.325C24.7407 194.364 26.7334 194.186 26.4774 192.91Z" fill="#FF957E"/>
<path fill-rule="evenodd" clip-rule="evenodd" d="M44.3819 139.402L44.0389 139.1C42.5309 137.767 40.0583 137.506 38.5908 139.1C37.1091 140.711 37.1639 142.924 38.5908 144.535C38.6933 144.649 38.7933 144.761 38.8934 144.877C40.2441 146.396 43.0241 146.353 44.3819 144.877C45.7326 143.408 46.0065 140.835 44.3819 139.402Z" fill="#241352"/>
<path fill-rule="evenodd" clip-rule="evenodd" d="M187.502 293.19C187.502 293.19 130.425 306.421 107.5 283.573L115.703 229.001C118.196 213.314 116.71 183.134 128.764 172.427C131.096 170.354 133.342 169.323 133.342 169.323C141.798 165.253 156.841 163.055 171.287 163C188.834 162.933 206.894 176.155 211.5 193.028L192.508 237.299L187.502 293.19Z" fill="#019B71"/>
<path fill-rule="evenodd" clip-rule="evenodd" d="M182.835 199.783C182.835 199.783 208.435 248.749 195.726 251.356C153.904 259.934 129.632 266.969 129.632 266.969L127.5 283.093C128.123 285.531 212.107 283.425 222.055 272.22C229.078 264.309 238.416 246.028 218.551 206.46L212.516 193L182.835 199.783Z" fill="#FFAFA7"/>
<path fill-rule="evenodd" clip-rule="evenodd" d="M135.5 172.907L71.6659 197.349L69.6682 164.228L56.0018 159C56.0018 159 36.1848 212.164 60.9683 222.062C85.7519 231.962 113.677 213.67 113.677 213.67L135.5 172.907Z" fill="#FFAFA7"/>
<path fill-rule="evenodd" clip-rule="evenodd" d="M142.5 166C120.53 173.052 107.428 181.317 76.5 194.315L92.3821 230L119.755 221.145L142.5 166Z" fill="#019B71"/>
<path fill-rule="evenodd" clip-rule="evenodd" d="M179.506 192.407L195.478 230L231.5 223.337L207.232 181L178.5 192.407" fill="#019B71"/>
<path fill-rule="evenodd" clip-rule="evenodd" d="M159.935 217.734C167.66 217.328 175.29 217.644 183.009 217.74C183.684 217.75 183.643 216.848 183.009 216.776C175.402 215.916 167.548 216.26 159.935 216.878C159.361 216.926 159.349 217.766 159.935 217.734Z" fill="#002C68"/>
<path fill-rule="evenodd" clip-rule="evenodd" d="M194.184 174.001C168.213 176.368 185.977 215.015 192.633 226.715C193.001 227.367 193.997 226.783 193.631 226.127C187.015 214.306 169.312 178.34 194.269 174.641C194.627 174.588 194.547 173.967 194.184 174.001Z" fill="#002C68"/>
<path fill-rule="evenodd" clip-rule="evenodd" d="M121.826 196.244C118.53 209.038 116.317 222.343 115.501 235.517C115.466 236.062 116.412 236.2 116.493 235.648C118.409 222.55 120.336 209.488 122.495 196.421C122.564 196.005 121.937 195.813 121.826 196.244Z" fill="#002C68"/>
<path fill-rule="evenodd" clip-rule="evenodd" d="M183.797 125C184.198 119.45 184.604 113.9 185.006 108.349C189.381 107.12 191.657 101.54 189.909 97.3553C188.164 93.1708 183.207 90.8208 178.705 91.4621C181.545 89.5339 181.329 84.9296 178.998 82.4134C176.667 79.8971 173.016 79.0811 169.582 78.949C166.149 78.8169 162.675 79.2324 159.297 78.6081C156.306 78.052 153.375 76.6863 150.356 77.0656C147.337 77.4469 144.451 80.8346 146.079 83.3977C141.725 82.7607 137.014 82.1811 133.144 84.2755C129.275 86.3699 127.333 92.3292 130.657 95.2056C128.461 96.322 127.912 99.4923 129.147 101.621C130.382 103.747 132.911 104.866 135.368 105.043C137.828 105.217 140.267 104.597 142.654 103.982" fill="#241352"/>
<path fill-rule="evenodd" clip-rule="evenodd" d="M182.945 114.257L182.08 125.747C182.08 125.747 191.764 127.065 189.006 135.975C186.243 144.885 179.619 140.987 179.619 140.987C179.619 140.987 177.961 163.822 154.771 156.582C136.314 150.818 137.442 126.713 139.785 106.162C140.694 98.2001 148.16 92.7254 155.959 94.2575L169.901 96.9969C177.961 98.5799 183.567 106 182.945 114.257Z" fill="#FFAFA7"/>
<path fill-rule="evenodd" clip-rule="evenodd" d="M181.5 136L175.205 169.15C173.785 176.618 166.33 181.396 158.843 179.634C151.906 177.999 147.463 171.308 148.709 164.374L152.126 145.374L181.5 136Z" fill="#FFAFA7"/>
<path fill-rule="evenodd" clip-rule="evenodd" d="M155.478 136.089C155.515 136.076 155.584 136.575 154.91 136.92C154.211 137.248 153.089 136.533 152.801 135.359C152.427 134.228 152.483 132.859 152.544 131.453C152.618 129.958 152.695 128.433 152.774 126.833C153.166 120.279 153.719 114.983 154.02 115C154.315 115.022 154.242 120.349 153.854 126.905C153.742 128.501 153.639 130.028 153.535 131.521C153.417 132.94 153.307 134.178 153.533 135.131C153.697 136.094 154.364 136.566 154.798 136.494C155.242 136.415 155.404 136.028 155.478 136.089Z" fill="#241352"/>
<path fill-rule="evenodd" clip-rule="evenodd" d="M147.505 154.015C147.613 153.888 148.747 154.578 150.743 155.356C152.721 156.137 155.634 156.936 158.933 156.996C162.237 157.057 165.183 156.368 167.198 155.659C169.229 154.956 170.395 154.309 170.495 154.44C170.579 154.534 169.56 155.402 167.529 156.306C165.52 157.211 162.421 158.062 158.909 157.996C155.4 157.933 152.346 156.967 150.379 155.989C148.395 155.01 147.42 154.105 147.505 154.015Z" fill="#241352"/>
<path fill-rule="evenodd" clip-rule="evenodd" d="M152.521 140.794C152.654 140.692 153.187 141.147 154.203 141.545C155.194 141.948 156.763 142.245 158.313 141.808C159.862 141.362 160.941 140.313 161.483 139.476C162.044 138.628 162.176 137.985 162.354 138C162.488 137.998 162.656 138.71 162.213 139.78C161.794 140.823 160.61 142.206 158.664 142.77C156.708 143.315 154.837 142.801 153.808 142.169C152.742 141.529 152.409 140.862 152.521 140.794Z" fill="#241352"/>
<path fill-rule="evenodd" clip-rule="evenodd" d="M182.5 136.793C182.486 136.628 183.066 136.546 183.709 136.151C184.03 135.947 184.308 135.657 184.41 135.251C184.513 134.838 184.395 134.453 184.072 134.35C183.806 134.247 183.553 134.333 183.494 134.43L182.559 133.949C183.435 132.149 184.218 130.905 184.448 131.006C184.674 131.107 184.277 132.518 183.524 134.373L182.591 133.89C182.983 133.226 183.842 133.075 184.463 133.327C184.918 133.476 185.319 133.93 185.427 134.359C185.555 134.796 185.501 135.218 185.37 135.567C185.114 136.279 184.509 136.697 184.043 136.85C183.068 137.157 182.496 136.917 182.5 136.793Z" fill="#241352"/>
<path fill-rule="evenodd" clip-rule="evenodd" d="M164.507 114.698C164.408 114.44 165.436 113.834 166.735 114.22C168.035 114.598 168.662 115.69 168.464 115.862C168.271 116.066 167.519 115.512 166.497 115.228C165.486 114.914 164.583 114.982 164.507 114.698Z" fill="#241352"/>
<path fill-rule="evenodd" clip-rule="evenodd" d="M143.51 110.176C143.382 109.928 144.51 109.176 146.088 109.322C147.667 109.456 148.649 110.396 148.481 110.616C148.322 110.866 147.294 110.46 146 110.36C144.705 110.23 143.624 110.45 143.51 110.176Z" fill="#241352"/>
<path fill-rule="evenodd" clip-rule="evenodd" d="M181.468 126.379C174.985 119.934 173.08 109.197 171.321 100.144C165.318 104.602 157.058 105.698 150.136 102.956C147.962 105.56 145.41 107.833 142.589 109.678C141.786 110.203 140.834 110.714 139.922 110.432C138.834 110.097 138.35 108.826 138.091 107.698C137.262 104.086 137.233 100.22 138.468 96.7329C139.704 93.2441 142.292 90.1806 145.686 88.8423C149.311 87.4094 153.392 88.0324 157.155 89.027C162.825 90.5265 168.291 92.8295 173.348 95.8478C178.308 98.8103 183.074 102.731 185.177 108.188C187.282 113.642 187.273 124.242 182.199 127" fill="#241352"/>
<path fill-rule="evenodd" clip-rule="evenodd" d="M166.382 123C166.094 122.982 165.916 122.294 165.98 121.466C166.046 120.637 166.332 119.982 166.618 120C166.906 120.018 167.086 120.706 167.018 121.534C166.954 122.361 166.668 123.018 166.382 123Z" fill="#241352"/>
<path fill-rule="evenodd" clip-rule="evenodd" d="M147.381 121C147.093 120.982 146.915 120.294 146.981 119.466C147.045 118.637 147.331 117.982 147.617 118C147.905 118.018 148.085 118.706 148.019 119.534C147.953 120.361 147.669 121.018 147.381 121Z" fill="#241352"/>
<path fill-rule="evenodd" clip-rule="evenodd" d="M54.5 160.531C54.5 160.531 57.3263 143.066 60.7047 143.254C64.0831 143.442 70.8356 143.254 70.8356 143.254C70.8356 143.254 71.4005 126.642 73.2776 129.285C75.1526 131.928 75.7429 154.278 68.5062 165L54.5 160.531Z" fill="#FFAFA7"/>
<path fill-rule="evenodd" clip-rule="evenodd" d="M129.5 267C129.5 267 99.9279 272.263 100.508 276.165C101.085 280.066 103.162 284 103.162 284L129.5 283.37V267Z" fill="#FFAFA7"/>
<path fill-rule="evenodd" clip-rule="evenodd" d="M162.5 284.691L162.271 280.515L99.8903 276.718L78.9687 221L10.5 224.747L33.8595 285L162.5 284.691Z" fill="#019B71"/>
<path fill-rule="evenodd" clip-rule="evenodd" d="M48.5076 251.274C48.6603 254.031 51.0178 256.143 53.777 255.992C56.534 255.84 58.6468 253.483 58.492 250.724C58.3414 247.967 55.9839 245.855 53.2268 246.008C50.4677 246.16 48.357 248.518 48.5076 251.274Z" fill="white"/>
<path fill-rule="evenodd" clip-rule="evenodd" d="M46.5109 251.385C46.7242 255.245 50.0264 258.202 53.8849 257.989C57.7455 257.778 60.7006 254.476 60.4893 250.615C60.2781 246.755 56.9759 243.798 53.1153 244.011C49.2547 244.222 46.2975 247.524 46.5109 251.385Z" fill="white"/>
<mask id="mask0_1_5" style="mask-type:luminance" maskUnits="userSpaceOnUse" x="0" y="282" width="284" height="32">
<path d="M0.5 282.935H283.479V314H0.5V282.935Z" fill="#E2D3F5"/>
</mask>
<g mask="url(#mask0_1_5)">
<path fill-rule="evenodd" clip-rule="evenodd" d="M0.499146 286.188L267.825 282.935L283.479 290.949C283.479 290.949 78.2619 345.857 0.499146 286.188Z" fill="#A3CEC2"/>
</g>
<path fill-rule="evenodd" clip-rule="evenodd" d="M158.532 25.0571C158.532 25.0571 144.954 25.7324 144.5 40.1289C144.5 40.1289 144.728 48.0014 149.028 50.9247C153.327 53.8481 153.1 57 153.1 57H164.414C164.414 57 163.963 52.9505 165.773 50.7003C167.583 48.4502 172.109 43.7275 171.432 36.7547C170.752 29.7798 165.545 24.3818 158.532 25.0571Z" fill="#019B71"/>
<path fill-rule="evenodd" clip-rule="evenodd" d="M152.958 60.6725C156.955 60.4925 160.999 60.9185 164.971 60.6945C165.543 60.6605 165.739 59.7945 165.113 59.6685C161.252 58.8925 156.839 59.3225 152.958 59.7465C152.363 59.8105 152.332 60.7005 152.958 60.6725Z" fill="#6F35A5"/>
<path fill-rule="evenodd" clip-rule="evenodd" d="M154.986 64.6887C156.641 64.5987 158.308 64.5347 159.967 64.5507C161.618 64.5667 163.31 64.8227 164.951 64.7107C165.554 64.6687 165.74 63.8407 165.1 63.6847C161.924 62.9087 158.062 63.3567 154.853 63.7787C154.304 63.8527 154.432 64.7187 154.986 64.6887Z" fill="#6F35A5"/>
<path fill-rule="evenodd" clip-rule="evenodd" d="M155.935 66.2715C157.258 66.3655 158.624 66.7495 159.942 66.7215C160.594 66.7055 160.713 65.7616 160.093 65.5616C158.813 65.1476 157.262 65.2915 155.935 65.3455C155.351 65.3695 155.359 66.2295 155.935 66.2715Z" fill="#6F35A5"/>
<path fill-rule="evenodd" clip-rule="evenodd" d="M156.611 56.3513C156.937 52.2774 155.525 47.7699 154.809 43.7721C154.397 43.9413 153.988 44.1084 153.577 44.2776C154.171 45.2231 155.155 47.9518 156.667 47.8545C158.23 47.7529 158.811 45.0433 159.029 43.9392H157.682C157.984 45.1977 158.021 48.2331 160.054 47.9454C161.776 47.7022 162.936 45.2189 163.462 43.8567C162.999 43.7319 162.531 43.6071 162.063 43.4823C161.023 47.4674 160.524 52.5122 161.564 56.5269C161.752 57.2503 162.931 57.1065 162.909 56.3513C162.781 52.1293 162.174 47.9962 163.462 43.8567C163.741 42.9683 162.396 42.6531 162.063 43.4823C161.871 43.9519 160.759 46.6255 159.706 46.2807C159.44 46.194 159.09 43.8102 159.029 43.5796C158.874 42.9556 157.806 42.907 157.682 43.5796C157.529 44.3982 157.179 46.6276 156.186 45.9613C155.612 45.5764 155.105 44.2036 154.741 43.6156C154.326 42.9429 153.396 43.4188 153.509 44.1211C154.16 48.1189 154.339 52.7766 155.991 56.5163C156.134 56.8378 156.589 56.6348 156.611 56.3513Z" fill="#6F35A5"/>
<path fill-rule="evenodd" clip-rule="evenodd" d="M116.125 51.9773C122.469 50.2608 129.016 48.7815 135.21 46.7046C135.705 46.5384 135.524 45.8996 134.986 46.0135C128.529 47.377 122.19 49.4091 115.853 51.1424C115.233 51.3124 115.497 52.1473 116.125 51.9773Z" fill="#FFBC7A"/>
<path fill-rule="evenodd" clip-rule="evenodd" d="M124.044 33.6924C127.985 33.6184 132.086 33.8264 135.996 33.3644C136.653 33.2864 136.683 32.4464 135.996 32.4004C132.066 32.1264 127.982 32.5344 124.044 32.6524C123.322 32.6744 123.315 33.7064 124.044 33.6924Z" fill="#FFBC7A"/>
<path fill-rule="evenodd" clip-rule="evenodd" d="M142.31 27.0449C137.896 23.1219 133.682 18.2265 128.653 15.122C127.865 14.6357 127.132 15.716 127.704 16.3783C131.561 20.8381 136.973 24.1516 141.51 27.8612C142.069 28.3188 142.869 27.5399 142.31 27.0449Z" fill="#FFBC7A"/>
<path fill-rule="evenodd" clip-rule="evenodd" d="M152.499 21.7087C152.541 20.4043 151.6 19.15 151.011 18.0642C150.315 16.7804 149.713 15.2916 148.755 14.2172C148.27 13.6754 147.291 14.2286 147.54 14.982C148.004 16.3866 148.96 17.634 149.718 18.8792C150.357 19.9399 150.977 21.4218 152.081 21.9659C152.273 22.0615 152.49 21.9499 152.499 21.7087Z" fill="#FFBC7A"/>
<mask id="mask1_1_5" style="mask-type:luminance" maskUnits="userSpaceOnUse" x="159" y="0" width="3" height="20">
<path d="M159.261 0.00799561H161.261V19.8924H159.261V0.00799561Z" fill="#FFBC7A"/>
</mask>
<g mask="url(#mask1_1_5)">
<path fill-rule="evenodd" clip-rule="evenodd" d="M161.032 19.2931C161.202 13.1987 161.41 6.75276 160.77 0.691492C160.674 -0.205981 159.55 -0.234718 159.486 0.691492C159.066 6.77707 159.514 13.2075 159.908 19.2931C159.958 20.0844 161.01 20.0999 161.032 19.2931Z" fill="#FFBC7A"/>
</g>
<path fill-rule="evenodd" clip-rule="evenodd" d="M167.448 21.7489C168.866 19.5895 170.342 17.4237 171.419 15.0566C171.801 14.2216 170.743 13.5816 170.23 14.3339C168.772 16.4722 167.679 18.8711 166.562 21.2127C166.272 21.8273 167.075 22.3168 167.448 21.7489Z" fill="#FFBC7A"/>
<path fill-rule="evenodd" clip-rule="evenodd" d="M174.088 25.9599C176.933 24.7672 179.612 23.2169 182.319 21.7451C184.991 20.294 187.984 19.031 190.312 17.0632C190.786 16.6601 190.281 15.8395 189.706 16.0276C186.981 16.9123 184.516 18.6507 182.036 20.0646C179.23 21.6666 176.341 23.1859 173.708 25.0648C173.297 25.3583 173.533 26.1914 174.088 25.9599Z" fill="#FFBC7A"/>
<path fill-rule="evenodd" clip-rule="evenodd" d="M175.945 34.669C178.32 35.421 182.402 34.866 184.245 33.2644C184.887 32.7073 184.203 31.8895 183.44 32.0124C182.173 32.2115 181.004 32.8174 179.742 33.0843C178.486 33.3492 177.201 33.3449 175.945 33.578C175.297 33.6987 175.409 34.4974 175.945 34.669Z" fill="#FFBC7A"/>
<path fill-rule="evenodd" clip-rule="evenodd" d="M177.984 45.172C186.063 46.9796 194.4 49.0459 202.665 49.9935C203.663 50.107 203.798 48.709 202.898 48.4688C194.979 46.3616 186.477 45.2688 178.342 44.0104C177.506 43.882 177.129 44.9803 177.984 45.172Z" fill="#FFBC7A"/>
<path fill-rule="evenodd" clip-rule="evenodd" d="M60.7287 188.242C61.0051 186.432 60.9515 184.708 61.9801 183.111C64.0308 179.93 66.9407 180.731 69.7585 182.129C72.6298 183.555 75.3319 184.408 78.454 183.078C83.3289 180.997 85.6152 173.749 80.9653 170.34C79.4589 169.235 77.9761 171.058 78.1775 172.454C78.4583 174.404 79.4397 176.548 77.7447 178.225C75.4798 180.467 72.8227 178.585 70.562 177.579C68.1192 176.493 65.5243 176.255 63.0043 177.258C58.6673 178.988 55.5217 184.786 58.9673 188.701C59.4516 189.254 60.6108 189.005 60.7287 188.242Z" fill="#019B71"/>
<path fill-rule="evenodd" clip-rule="evenodd" d="M104.39 243.671C110.476 244.029 116.873 244.173 122.95 243.698C125.183 243.522 124.907 241.111 122.741 241.045C116.757 240.859 110.486 241.273 104.556 241.903C103.367 242.029 103.011 243.589 104.39 243.671Z" fill="#019B71"/>
<path fill-rule="evenodd" clip-rule="evenodd" d="M209.654 87.4117C208.844 88.9943 211.494 129.878 211.494 129.878L231.492 128.206L229.16 139L238.932 127.905L258.5 125.63L257.312 86L209.654 87.4117Z" fill="#70BFFF"/>
<path fill-rule="evenodd" clip-rule="evenodd" d="M220.5 105.414L224.735 120L230.662 118.855L230.083 115.918L231.764 114.917L234.939 118.029L244.979 116.09L246.28 112.286L243.423 111.653L247.111 110.431L246.31 106.356L243.12 106.633L247.5 105.45L246.504 100.392L236.302 102.363C236.302 102.363 236.96 95.2969 233.948 93L231.642 93.4467C231.642 93.4467 232.42 95.6653 232.347 97.0328C232.277 98.4004 230.271 104.711 230.271 104.711L227.138 106.163L226.395 104.106L220.5 105.414Z" fill="white"/>
<path fill-rule="evenodd" clip-rule="evenodd" d="M14.5 78L17.9065 118.685H92.7319L96.8729 133L101.242 117.302L115.5 116.472L108.928 80.0316L14.5 78Z" fill="#70BFFF"/>
<path fill-rule="evenodd" clip-rule="evenodd" d="M24.0976 92.836C49.7213 91.8601 75.2541 91.9255 100.814 93.997C101.726 94.0699 101.731 92.7967 100.814 92.735C75.2837 91.0206 49.6684 90.3682 24.0976 91.7404C23.3061 91.7834 23.2955 92.8659 24.0976 92.836Z" fill="white"/>
<path fill-rule="evenodd" clip-rule="evenodd" d="M26.0976 101.836C51.7199 100.86 77.2555 100.926 102.814 102.997C103.726 103.07 103.731 101.797 102.814 101.733C77.2851 100.021 51.6691 99.3683 26.0976 100.74C25.3061 100.783 25.2955 101.866 26.0976 101.836Z" fill="white"/>
<path fill-rule="evenodd" clip-rule="evenodd" d="M26.1019 108.179C43.4101 108.731 60.5183 107.543 77.8095 108.997C78.727 109.075 78.7334 107.707 77.8095 107.647C60.5374 106.537 43.3952 107.247 26.1019 107.007C25.2972 106.995 25.3015 108.153 26.1019 108.179Z" fill="white"/>
</svg>
