<svg width="331" height="303" viewBox="0 0 331 303" fill="none" xmlns="http://www.w3.org/2000/svg">
<mask id="mask0_1_73" style="mask-type:luminance" maskUnits="userSpaceOnUse" x="0" y="0" width="331" height="288">
<path d="M0.5 0.01091H330.266V287.931H0.5V0.01091Z" fill="#E2D3F5"/>
</mask>
<g mask="url(#mask0_1_73)">
<path fill-rule="evenodd" clip-rule="evenodd" d="M84.2781 282.571C43.8835 268.987 8.84487 235.228 1.66954 193.315C-5.50578 151.401 20.9984 104.156 62.6436 95.0699C82.335 90.7715 103.59 94.6108 122.402 87.3957C157.883 73.7882 169.941 27.7515 202.722 8.55078C234.304 -9.94618 277.604 3.39493 301.134 31.3916C324.661 59.3882 331.526 98.0192 330.085 134.522C327.966 188.15 305.118 245.986 256.347 268.662C215.249 287.77 128.357 293.186 84.2781 282.571Z" fill="#C6F2E6"/>
</g>
<path fill-rule="evenodd" clip-rule="evenodd" d="M35.5 273.323C44.4002 288.06 62.7374 293.592 79.4494 293.241C96.1592 292.889 112.499 287.909 129.185 286.899C155.63 285.303 181.546 293.68 207.541 298.987C233.538 304.292 261.951 306.185 285.135 292.835C290.811 289.568 296.288 285.105 298.586 278.786C300.884 272.469 298.807 264.083 292.826 261.472C290.508 260.462 287.929 260.399 285.416 260.349C229.723 259.274 174.03 258.199 118.337 257.121C89.9877 256.573 58.7363 257.076 37.4692 276.615" fill="#A3CEC2"/>
<path fill-rule="evenodd" clip-rule="evenodd" d="M275.404 107.216C271.978 110.488 270.674 115.581 273.943 119.512C277.02 123.211 282.972 123.996 286.815 121.047C296.093 113.927 286.422 100.79 276.411 103.509C274.558 104.012 275.02 106.64 276.852 106.744C279.778 106.908 282.911 107.021 285.251 109.061C287.761 111.251 287.818 114.957 285.757 117.476C280.299 124.147 270.823 114.324 276.553 108.359C277.277 107.607 276.161 106.494 275.404 107.216Z" fill="#3A3A3A" fill-opacity="0.5"/>
<path fill-rule="evenodd" clip-rule="evenodd" d="M52.1684 74.8553C48.7232 73.3073 44.4843 73.665 41.3509 75.7659C38.2175 77.8669 36.2965 81.6416 36.4491 85.399C36.5691 88.3346 37.7465 91.6758 35.8691 93.9458C34.4169 95.6977 31.8265 95.8624 29.7463 96.7991C25.7908 98.577 23.8218 103.778 25.6208 107.707C26.5933 109.834 28.523 111.792 28.1545 114.099C27.9168 115.593 26.7241 116.774 25.4049 117.527C24.0835 118.277 22.6051 118.706 21.2379 119.369C16.2577 121.793 13.2333 127.424 13.375 132.935C13.519 138.447 16.5695 143.676 20.9436 147.065C25.3198 150.454 30.8976 152.1 36.4382 152.306C41.992 152.512 47.8009 151.217 52.0376 147.644C55.2189 144.96 57.2948 141.2 58.8255 137.343C61.7386 130.008 62.9183 122.002 62.2467 114.146C61.5468 105.994 58.8974 98.0935 58.3174 89.9326C58.1234 87.1985 58.1626 84.4277 57.5499 81.7543C56.9372 79.081 55.5613 76.4381 53.2041 75.0179" fill="#3A3A3A"/>
<path fill-rule="evenodd" clip-rule="evenodd" d="M50.9057 75.9108C54.0609 69.389 60.3342 64.4435 67.4426 62.8759C71.808 61.9132 76.5986 62.2385 80.4341 64.5237C84.2718 66.8089 86.9233 71.2666 86.3389 75.6766C85.9769 78.402 84.4898 80.8346 83.5457 83.419C82.6015 86.0056 82.2919 89.1581 84.0472 91.2829C85.6215 93.1909 88.321 93.6613 90.4709 94.895C93.5411 96.6599 95.4708 100.22 95.2681 103.741C95.0653 107.262 92.7365 110.579 89.4832 111.982C92.7147 112.355 95.7521 114.152 97.6208 116.798C99.4917 119.445 100.163 122.894 99.4219 126.045C98.3578 130.559 94.6684 134.013 90.6999 136.452C85.1876 139.841 78.7943 141.805 72.3182 142.095C65.4453 142.405 57.8331 140.383 54.0936 134.639C51.6405 130.869 51.2655 126.164 50.9907 121.68C50.1599 108.147 49.5908 94.598 49.0217 81.0514C48.9301 78.8724 48.8407 76.6588 49.3575 74.5383" fill="#3A3A3A"/>
<path fill-rule="evenodd" clip-rule="evenodd" d="M74.0288 137.056L135.648 160.025L129.765 135.282L145.789 131.232C145.789 131.232 163.026 179.601 151.055 180.896C130.098 183.164 98.3895 174.912 98.3895 174.912L74.0288 137.056Z" fill="#3A3A3A" fill-opacity="0.5"/>
<path fill-rule="evenodd" clip-rule="evenodd" d="M68.6423 242.628C68.6423 242.628 143.083 161.836 193.337 179.474C243.591 197.114 264.809 279.402 264.809 279.402L224.782 278.756C224.782 278.756 193.171 216.606 177.746 219.012C162.319 221.423 114.679 280.579 114.679 280.579L68.6423 242.628Z" fill="#3A3A3A" fill-opacity="0.5"/>
<path fill-rule="evenodd" clip-rule="evenodd" d="M92.1936 193.58L95.2833 240.982C79.237 260.6 23.3746 235.237 23.3746 235.237L22.7226 215.418L21.4252 168.213C22.7117 149.415 40.2714 140.19 40.2714 140.19C47.5303 136.591 58.6007 134.548 68.5743 135.04C78.9862 135.55 81.5592 140.508 85.8483 149.955C89.3131 157.587 98.7176 170.021 92.1936 193.58Z" fill="#3A3A3A" fill-opacity="0.5"/>
<path fill-rule="evenodd" clip-rule="evenodd" d="M33.8151 244.167C33.8151 244.167 25.2719 278.745 51.3115 284.195C77.3511 289.644 173.123 276.895 198.068 279.076C223.013 281.253 293.954 285.371 293.954 285.371L299.148 244.308C299.148 244.308 188.751 239.046 176.274 242.131C163.797 245.212 33.8151 244.167 33.8151 244.167Z" fill="#3A3A3A" fill-opacity="0.5"/>
<path fill-rule="evenodd" clip-rule="evenodd" d="M46.2998 183.716C46.2998 183.716 38.4914 229.47 49.503 228.342C85.7233 224.639 107.291 224.141 107.291 224.141L113.294 236.534C113.433 238.645 44.7015 258.209 33.6572 251.741C25.8597 247.175 13.4374 234.873 19.0762 198.11L20.4085 185.786L46.2998 183.716Z" fill="#3A3A3A"/>
<path fill-rule="evenodd" clip-rule="evenodd" d="M78.9817 249.401L78.9075 246.333L124.369 239.95L136.436 197.993L186.797 196.778L173.208 242.192L78.9817 249.401Z" fill="#3A3A3A" fill-opacity="0.5"/>
<path fill-rule="evenodd" clip-rule="evenodd" d="M160.701 217.879C160.751 219.925 159.122 221.627 157.064 221.677C155.005 221.725 153.296 220.105 153.246 218.058C153.195 216.014 154.824 214.312 156.883 214.262C158.941 214.214 160.651 215.832 160.701 217.879Z" fill="#3A3A3A"/>
<path fill-rule="evenodd" clip-rule="evenodd" d="M162.193 217.843C162.263 220.709 159.982 223.089 157.1 223.159C154.217 223.228 151.823 220.96 151.753 218.094C151.683 215.228 153.964 212.847 156.847 212.78C159.729 212.711 162.124 214.978 162.193 217.843Z" fill="#3A3A3A"/>
<path fill-rule="evenodd" clip-rule="evenodd" d="M26.377 153.369C26.377 153.369 17.9275 161.434 16.0392 191.958L48.738 188.361C48.738 188.361 54.1871 136.375 26.377 153.369Z" fill="#3A3A3A"/>
<path fill-rule="evenodd" clip-rule="evenodd" d="M266.406 61.5828C266.406 61.5828 277.998 87.4661 281.229 86.1088C284.463 84.7537 314.399 66.2855 314.399 66.2855C314.399 66.2855 302.129 43.1124 299.576 41.7595C297.023 40.4087 266.406 61.5828 266.406 61.5828Z" fill="#3A3A3A" fill-opacity="0.5"/>
<path fill-rule="evenodd" clip-rule="evenodd" d="M299.576 41.7604C299.722 41.8146 298.869 44.4705 297.371 48.7158C295.875 52.9632 293.732 58.802 291.303 65.2262C291.242 65.3844 291.181 65.5427 291.126 65.6901L290.963 66.1216L290.503 66.0479C283.798 64.9617 277.762 63.9209 273.408 63.1144C269.053 62.3078 266.38 61.7355 266.406 61.5837C266.43 61.4319 269.147 61.729 273.534 62.3339C277.921 62.9409 283.979 63.8537 290.686 64.9335L290.064 65.2934C290.119 65.1459 290.178 64.9877 290.239 64.8294C292.67 58.4052 294.931 52.6097 296.621 48.4361C298.311 44.2602 299.43 41.7062 299.576 41.7604Z" fill="#3A3A3A"/>
<path fill-rule="evenodd" clip-rule="evenodd" d="M277.42 83.0693C277.115 83.0021 278.016 78.7504 279.433 73.5772C280.853 68.4018 282.244 64.2845 282.543 64.3799C282.841 64.4753 281.941 68.7271 280.53 73.8742C279.119 79.0192 277.726 83.1365 277.42 83.0693Z" fill="#3A3A3A"/>
<path fill-rule="evenodd" clip-rule="evenodd" d="M312.423 61.137C312.376 61.4449 308.198 61.0438 303.093 60.2373C297.989 59.4351 293.891 58.5331 293.939 58.2252C293.99 57.9174 298.165 58.3185 303.272 59.1228C308.374 59.9272 312.471 60.8292 312.423 61.137Z" fill="#3A3A3A"/>
<path fill-rule="evenodd" clip-rule="evenodd" d="M42.7532 89.3897L43.4924 99.0791C43.4924 99.0791 35.2065 100.191 37.5701 107.706C39.9316 115.221 45.5988 111.932 45.5988 111.932C45.5988 111.932 47.0161 131.189 66.8565 125.084C82.6456 120.225 81.6796 99.8943 79.6757 82.5622C78.8994 75.8475 72.5106 71.2315 65.8382 72.5237L53.9109 74.8349C47.0183 76.1683 42.2212 82.4256 42.7532 89.3897Z" fill="#3A3A3A"/>
<path fill-rule="evenodd" clip-rule="evenodd" d="M43.4931 107.122L48.8397 135.466C50.0433 141.854 56.3755 145.938 62.7316 144.432C68.6212 143.033 72.3935 137.311 71.3359 131.384L68.4337 115.138L43.4931 107.122Z" fill="#3A3A3A"/>
<path fill-rule="evenodd" clip-rule="evenodd" d="M65.4377 107.442C65.514 107.388 65.6753 107.694 66.0373 107.735C66.3905 107.772 66.9291 107.407 67.06 106.638C67.2409 105.874 67.1406 104.871 67.0316 103.709C66.9378 102.46 66.8463 101.224 66.7503 99.9316C66.4123 94.5676 66.3905 90.2032 66.7045 90.1836C67.0185 90.1641 67.5462 94.4961 67.8842 99.8601C67.9496 101.157 68.0128 102.392 68.0761 103.643C68.1219 104.79 68.1655 105.924 67.8297 106.863C67.568 107.843 66.5541 108.45 65.9217 108.16C65.3156 107.854 65.3962 107.436 65.4377 107.442Z" fill="#3A3A3A"/>
<path fill-rule="evenodd" clip-rule="evenodd" d="M71.8739 123.106C71.9633 123.21 71.1739 124.075 69.5429 125.007C67.9293 125.938 65.4087 126.855 62.5064 126.913C59.6041 126.976 57.0442 126.167 55.3936 125.304C53.7255 124.442 52.9013 123.611 52.9841 123.503C53.1302 123.188 56.9984 125.918 62.4824 125.784C67.9664 125.688 71.7169 122.798 71.8739 123.106Z" fill="#3A3A3A"/>
<path fill-rule="evenodd" clip-rule="evenodd" d="M67.9982 111.418C68.1094 111.498 67.8543 112.134 66.9756 112.747C66.1273 113.354 64.5661 113.849 62.9264 113.335C61.2932 112.804 60.3141 111.496 59.9805 110.512C59.6273 109.504 59.7908 108.838 59.9282 108.84C60.1004 108.825 60.2356 109.413 60.7066 110.172C61.1623 110.924 62.0389 111.861 63.2731 112.262C64.5116 112.652 65.7719 112.4 66.5853 112.051C67.4117 111.707 67.8674 111.308 67.9982 111.418Z" fill="#3A3A3A"/>
<path fill-rule="evenodd" clip-rule="evenodd" d="M42.8692 108.646C42.8714 108.778 42.3851 109.01 41.5238 108.758C41.1117 108.63 40.5666 108.264 40.3333 107.629C40.2155 107.319 40.1632 106.939 40.2809 106.542C40.3747 106.154 40.7476 105.736 41.1597 105.602C41.7223 105.374 42.5094 105.508 42.8736 106.124L41.9098 106.623C41.2796 105.036 40.9743 103.819 41.2098 103.715C41.4432 103.611 42.1453 104.654 42.9041 106.185L41.9403 106.683C41.9185 106.651 41.7593 106.582 41.5631 106.657C41.3516 106.72 41.2556 106.972 41.3276 107.304C41.3974 107.62 41.6089 107.856 41.8662 108.036C42.3873 108.379 42.8823 108.479 42.8692 108.646Z" fill="#3A3A3A"/>
<path fill-rule="evenodd" clip-rule="evenodd" d="M73.3836 95.0492C73.0784 95.1185 72.6728 94.4789 72.4765 93.6225C72.2825 92.7661 72.3741 92.0181 72.6793 91.9487C72.9846 91.8793 73.3902 92.5189 73.5842 93.3754C73.7805 94.2318 73.6889 94.9798 73.3836 95.0492Z" fill="#3A3A3A"/>
<path fill-rule="evenodd" clip-rule="evenodd" d="M56.5857 96.6022C56.2826 96.6868 55.8443 96.058 55.6045 95.2016C55.3646 94.343 55.4169 93.582 55.72 93.4974C56.0209 93.415 56.4592 94.0416 56.6991 94.9002C56.9389 95.7566 56.8888 96.5176 56.5857 96.6022Z" fill="#3A3A3A"/>
<path fill-rule="evenodd" clip-rule="evenodd" d="M58.1456 89.5473C58.0497 89.853 57.1557 89.8422 56.1657 90.1175C55.167 90.3603 54.393 90.807 54.1596 90.5858C53.9176 90.3994 54.5369 89.3717 55.8779 89.0248C57.2145 88.6714 58.2634 89.2654 58.1456 89.5473Z" fill="#3A3A3A"/>
<path fill-rule="evenodd" clip-rule="evenodd" d="M75.2979 86.8436C75.1714 87.1385 74.188 86.9932 73.0367 87.106C71.8832 87.1927 70.9391 87.5071 70.7646 87.2382C70.5771 86.9976 71.4711 86.1065 72.9386 85.9829C74.4061 85.8506 75.4396 86.5748 75.2979 86.8436Z" fill="#3A3A3A"/>
<path fill-rule="evenodd" clip-rule="evenodd" d="M43.4931 99.0795C49.0315 93.7112 50.6582 84.7676 52.1606 77.2247C57.2891 80.9387 64.343 81.8515 70.2566 79.5684C72.1122 81.7366 74.2927 83.6315 76.7021 85.1666C77.389 85.6045 78.2002 86.0295 78.9808 85.7953C79.9097 85.5178 80.324 84.4576 80.5442 83.5166C81.2529 80.5094 81.279 77.2897 80.2237 74.3822C79.1683 71.4791 76.9551 68.925 74.0572 67.8106C70.9609 66.6181 67.4764 67.1363 64.2602 67.9645C59.4173 69.2134 54.7488 71.1322 50.4314 73.6472C46.1925 76.1146 42.1237 79.382 40.3248 83.9242C38.528 88.4686 38.5368 97.3017 42.8694 99.5977" fill="#3A3A3A"/>
<path fill-rule="evenodd" clip-rule="evenodd" d="M66.0968 112.47C66.3628 113.998 65.0524 115.485 63.26 115.115C61.4676 114.727 60.8811 112.84 61.7489 111.55C62.6146 110.243 63.7702 109.469 64.4396 109.59C65.1003 109.751 65.8417 110.926 66.0968 112.47Z" fill="#3A3A3A"/>
<path fill-rule="evenodd" clip-rule="evenodd" d="M59.1953 103.473C59.47 105.002 57.5708 106.619 54.9215 106.736C52.2722 106.86 50.2312 105.418 50.3686 103.872C50.5016 102.313 52.4248 101.205 54.6642 101.097C56.9036 101.001 58.9206 101.934 59.1953 103.473Z" fill="#3A3A3A"/>
<path fill-rule="evenodd" clip-rule="evenodd" d="M80.1731 101.771C80.4849 103.293 78.8212 104.912 76.4226 105.034C74.0219 105.157 72.2011 103.715 72.3538 102.17C72.5042 100.613 74.1963 99.5006 76.1304 99.3943C78.0667 99.3033 79.8634 100.236 80.1731 101.771Z" fill="#3A3A3A"/>
<path fill-rule="evenodd" clip-rule="evenodd" d="M43.2654 124.729C42.9471 124.722 42.7704 121.613 42.5698 117.795C42.3758 113.975 42.2297 110.866 42.5458 110.827C42.8511 110.786 43.5074 113.869 43.7037 117.737C43.9065 121.605 43.5729 124.738 43.2654 124.729Z" fill="#3A3A3A"/>
<path fill-rule="evenodd" clip-rule="evenodd" d="M76.1847 136.849C70.8229 134.731 112.065 149.956 112.065 149.956L107.881 178.007L92.194 172.89L76.1847 136.849Z" fill="#3A3A3A" fill-opacity="0.5"/>
<path fill-rule="evenodd" clip-rule="evenodd" d="M51.6433 73.3933C52.9407 71.4463 53.3681 68.9486 52.7903 66.6851C52.3149 64.8205 50.8998 62.9711 48.9679 62.8735C47.8711 62.8171 46.807 63.3483 46.0002 64.092C44.0072 65.9263 43.4948 69.1568 44.8227 71.5114C46.1507 73.866 49.1881 75.117 51.8025 74.3863" fill="#3A3A3A"/>
<path fill-rule="evenodd" clip-rule="evenodd" d="M298.042 253.045C298.042 253.045 311.456 233.922 309.821 241.162C308.185 248.401 294.559 280.578 294.559 280.578L298.042 253.045Z" fill="#3A3A3A" fill-opacity="0.5"/>
<path fill-rule="evenodd" clip-rule="evenodd" d="M103.481 224.144C103.481 224.144 121.206 218.615 120.597 220.434C119.989 222.251 116.973 222.318 113.958 225.251C113.958 225.251 133.772 225.464 132.819 227.088C131.866 228.71 118.969 229.119 118.89 229.395C118.814 229.672 132.998 230.017 132.68 231.517C132.359 233.02 119.178 232.654 119.178 232.654C119.178 232.654 131.398 233.946 131.147 235.563C130.896 237.183 119.632 236.016 119.632 236.016C119.632 236.016 129.06 237.087 128.814 238.553C128.665 239.446 101.208 239.648 101.151 240.305C101.121 240.65 103.481 224.144 103.481 224.144Z" fill="#3A3A3A"/>
<path fill-rule="evenodd" clip-rule="evenodd" d="M130.921 136.849C130.921 136.849 120.158 121.889 122.077 121.898C123.996 121.904 124.997 124.721 128.723 126.648C128.723 126.648 122.777 107.942 124.615 108.334C126.458 108.726 130.849 120.734 131.137 120.721C131.423 120.708 127.347 107.254 128.876 107.09C130.402 106.925 134.146 119.439 134.146 119.439C134.146 119.439 131.582 107.543 133.2 107.276C134.82 107.009 137.205 117.969 137.205 117.969C137.205 117.969 135.297 108.765 136.769 108.54C137.665 108.403 145.79 131.234 145.79 131.234C145.576 131.234 130.921 136.849 130.921 136.849Z" fill="#3A3A3A" fill-opacity="0.5"/>
<path fill-rule="evenodd" clip-rule="evenodd" d="M31.659 178.007C31.7768 177.996 32.178 178.705 32.1998 180.119C32.1954 180.804 31.9141 181.799 31.0376 182.419C30.6189 182.729 29.9953 182.95 29.3499 182.809C28.711 182.677 28.2291 182.246 27.8824 181.869C27.1803 181.055 26.7245 180.574 26.005 180.49C25.3159 180.381 24.6945 180.611 24.2954 180.973C23.4581 181.734 23.4843 182.612 23.3142 182.601C23.2008 182.673 22.7669 181.663 23.7089 180.427C24.169 179.837 25.0957 179.356 26.1227 179.455C26.6308 179.499 27.1737 179.679 27.6316 180.026C28.0786 180.362 28.397 180.767 28.711 181.101C29.8405 182.632 31.3189 181.138 31.3995 180.036C31.5783 178.874 31.4737 178.02 31.659 178.007Z" fill="#3A3A3A"/>
<path fill-rule="evenodd" clip-rule="evenodd" d="M41.3413 169.698C41.2694 169.604 41.6706 168.893 42.8742 168.141C43.4651 167.787 44.466 167.51 45.4538 167.928C45.9378 168.124 46.4524 168.538 46.6683 169.16C46.8864 169.771 46.7664 170.407 46.6247 170.897C46.2889 171.913 46.1145 172.553 46.4154 173.21C46.6792 173.85 47.2003 174.257 47.7215 174.407C48.8074 174.721 49.5488 174.242 49.6294 174.394C49.7494 174.452 49.1061 175.346 47.5558 175.19C46.81 175.107 45.9138 174.572 45.4647 173.646C45.2379 173.191 45.1114 172.635 45.1703 172.067C45.227 171.512 45.408 171.031 45.5301 170.591C46.2605 168.837 44.2065 168.358 43.2166 168.863C42.1285 169.316 41.4482 169.849 41.3413 169.698Z" fill="#3A3A3A"/>
<path fill-rule="evenodd" clip-rule="evenodd" d="M40.6876 148.997C40.6157 148.901 41.0169 148.192 42.2183 147.44C42.8092 147.087 43.8123 146.807 44.8 147.227C45.2841 147.423 45.7987 147.837 46.0124 148.459C46.2326 149.07 46.1127 149.706 45.971 150.196C45.6352 151.212 45.4586 151.852 45.7616 152.507C46.0255 153.149 46.5466 153.556 47.0656 153.706C48.1537 154.02 48.895 153.541 48.9757 153.693C49.0956 153.751 48.4524 154.645 46.8999 154.489C46.1541 154.404 45.2601 153.868 44.8109 152.945C44.5842 152.49 44.4577 151.934 44.5144 151.366C44.5711 150.811 44.7543 150.33 44.8764 149.89C45.6047 148.136 43.5528 147.657 42.5628 148.16C41.4726 148.615 40.7945 149.148 40.6876 148.997Z" fill="#3A3A3A"/>
<path fill-rule="evenodd" clip-rule="evenodd" d="M61.3333 175.957C61.2439 176.036 60.5003 175.699 59.6412 174.576C59.2356 174.021 58.8693 173.054 59.2029 172.037C59.3556 171.541 59.7263 170.995 60.3303 170.728C60.9234 170.457 61.5688 170.522 62.0725 170.62C63.1213 170.862 63.7776 170.982 64.4078 170.626C65.0271 170.307 65.389 169.754 65.4959 169.228C65.7161 168.122 65.171 167.43 65.3149 167.337C65.365 167.213 66.3157 167.773 66.2918 169.323C66.2743 170.069 65.8164 171.001 64.9289 171.528C64.4928 171.792 63.9499 171.966 63.3742 171.957C62.8117 171.951 62.3145 171.812 61.8632 171.73C60.0424 171.159 59.7415 173.236 60.3324 174.171C60.8819 175.212 61.475 175.838 61.3333 175.957Z" fill="#3A3A3A"/>
<path fill-rule="evenodd" clip-rule="evenodd" d="M75.4106 197.607C75.4739 197.707 75.0225 198.383 73.7687 199.049C73.1516 199.359 72.1333 199.561 71.1783 199.071C70.7095 198.841 70.2276 198.39 70.0575 197.753C69.8852 197.128 70.0531 196.504 70.2319 196.027C70.6397 195.034 70.8621 194.409 70.6113 193.735C70.3933 193.076 69.9049 192.631 69.3968 192.443C68.3371 192.05 67.563 192.475 67.4932 192.319C67.3776 192.25 68.0863 191.406 69.6214 191.677C70.3584 191.814 71.211 192.412 71.5904 193.369C71.7823 193.839 71.8695 194.401 71.7692 194.964C71.6711 195.513 71.453 195.981 71.2982 196.41C70.4413 198.104 72.4539 198.737 73.4787 198.303C74.5973 197.93 75.3147 197.449 75.4106 197.607Z" fill="#3A3A3A"/>
<path fill-rule="evenodd" clip-rule="evenodd" d="M91.9838 163.461C92.047 163.561 91.5957 164.24 90.3419 164.903C89.7248 165.211 88.7065 165.415 87.7514 164.925C87.2826 164.695 86.8007 164.244 86.6306 163.609C86.4584 162.982 86.6263 162.358 86.8051 161.881C87.2128 160.89 87.4353 160.265 87.1845 159.589C86.9664 158.93 86.478 158.485 85.97 158.297C84.9102 157.904 84.1361 158.327 84.0664 158.173C83.9508 158.104 84.6595 157.26 86.1945 157.531C86.9316 157.668 87.7841 158.266 88.1635 159.222C88.3576 159.693 88.4426 160.255 88.3423 160.818C88.2442 161.367 88.0262 161.835 87.8714 162.264C87.0144 163.96 89.027 164.589 90.0519 164.157C91.1705 163.784 91.8878 163.303 91.9838 163.461Z" fill="#3A3A3A"/>
<path fill-rule="evenodd" clip-rule="evenodd" d="M103.291 158.266C103.363 158.173 104.157 158.366 105.21 159.316C105.709 159.788 106.248 160.673 106.106 161.733C106.047 162.247 105.783 162.852 105.238 163.225C104.704 163.598 104.059 163.652 103.544 163.648C102.469 163.6 101.802 163.602 101.248 164.066C100.698 164.493 100.443 165.1 100.435 165.64C100.424 166.765 101.087 167.346 100.962 167.464C100.936 167.596 99.8982 167.219 99.6343 165.69C99.5166 164.953 99.7935 163.953 100.57 163.275C100.949 162.934 101.453 162.665 102.02 162.568C102.574 162.475 103.088 162.52 103.548 162.518C105.441 162.748 105.358 160.653 104.604 159.84C103.871 158.917 103.173 158.409 103.291 158.266Z" fill="#3A3A3A"/>
<path fill-rule="evenodd" clip-rule="evenodd" d="M57.5473 215.264C57.6105 215.363 57.1592 216.04 55.9054 216.705C55.2883 217.013 54.27 217.217 53.3149 216.727C52.8461 216.495 52.3642 216.046 52.1941 215.409C52.0219 214.784 52.1898 214.16 52.3664 213.683C52.7763 212.69 52.9987 212.066 52.748 211.391C52.5299 210.732 52.0415 210.288 51.5334 210.099C50.4715 209.707 49.6975 210.132 49.6299 209.975C49.5143 209.906 50.2208 209.063 51.758 209.334C52.4951 209.47 53.3476 210.069 53.727 211.025C53.9189 211.495 54.004 212.057 53.9058 212.621C53.8077 213.169 53.5897 213.637 53.4348 214.065C52.5779 215.76 54.5905 216.391 55.6132 215.959C56.734 215.587 57.4513 215.105 57.5473 215.264Z" fill="#3A3A3A"/>
<path fill-rule="evenodd" clip-rule="evenodd" d="M82.0769 182.405C81.9788 182.472 81.2788 182.051 80.5592 180.833C80.2213 180.237 79.9749 179.231 80.4262 178.262C80.6377 177.787 81.0717 177.288 81.7018 177.093C82.3233 176.896 82.9578 177.034 83.4462 177.191C84.458 177.557 85.0947 177.75 85.7641 177.472C86.4161 177.227 86.8435 176.722 87.0114 176.213C87.3602 175.139 86.9002 174.389 87.055 174.316C87.1204 174.196 87.997 174.862 87.7898 176.399C87.683 177.138 87.1182 178.012 86.174 178.431C85.7096 178.641 85.1492 178.749 84.5779 178.674C84.0219 178.6 83.5422 178.405 83.1061 178.268C81.366 177.49 80.8187 179.515 81.2963 180.514C81.7171 181.611 82.2317 182.303 82.0769 182.405Z" fill="#3A3A3A"/>
<path fill-rule="evenodd" clip-rule="evenodd" d="M86.4793 200.059C86.3834 200.126 85.6813 199.706 84.9617 198.487C84.6259 197.891 84.3773 196.885 84.8309 195.916C85.0402 195.441 85.4741 194.944 86.1065 194.749C86.7279 194.55 87.3602 194.688 87.8487 194.847C88.8604 195.211 89.4993 195.406 90.1666 195.126C90.8185 194.881 91.2459 194.378 91.4138 193.867C91.7627 192.794 91.3048 192.046 91.4574 191.97C91.5228 191.853 92.3994 192.516 92.1944 194.053C92.0876 194.793 91.5207 195.666 90.5765 196.085C90.1142 196.297 89.5517 196.404 88.9804 196.328C88.4243 196.254 87.9468 196.059 87.5085 195.924C85.7685 195.144 85.2212 197.169 85.6987 198.168C86.1195 199.265 86.6363 199.957 86.4793 200.059Z" fill="#3A3A3A"/>
<path fill-rule="evenodd" clip-rule="evenodd" d="M50.977 192.528C50.8592 192.513 50.6259 191.734 50.9159 190.351C51.0707 189.683 51.5657 188.775 52.5557 188.358C53.0332 188.146 53.6895 188.066 54.2892 188.345C54.8844 188.614 55.2595 189.141 55.5146 189.583C56.0183 190.529 56.3585 191.099 57.041 191.34C57.6908 191.595 58.3449 191.504 58.8159 191.238C59.7993 190.678 59.9672 189.818 60.1329 189.863C60.2594 189.82 60.4578 190.902 59.2673 191.901C58.6894 192.376 57.6799 192.645 56.6986 192.322C56.2102 192.17 55.7218 191.875 55.3511 191.437C54.9891 191.012 54.7667 190.546 54.5334 190.151C53.7724 188.415 51.9996 189.549 51.6769 190.605C51.2474 191.7 51.1601 192.558 50.977 192.528Z" fill="#3A3A3A"/>
<path fill-rule="evenodd" clip-rule="evenodd" d="M83.0394 214.323C82.9216 214.308 82.6861 213.53 82.9783 212.147C83.1309 211.479 83.6281 210.57 84.618 210.154C85.0934 209.942 85.7519 209.861 86.3515 210.141C86.9468 210.41 87.3197 210.937 87.577 211.379C88.0807 212.324 88.4208 212.895 89.1033 213.135C89.7509 213.391 90.4073 213.3 90.8783 213.033C91.8617 212.474 92.0296 211.613 92.1931 211.659C92.3196 211.615 92.5202 212.697 91.3275 213.697C90.7496 214.172 89.74 214.44 88.761 214.117C88.2726 213.966 87.7841 213.671 87.4134 213.233C87.0515 212.808 86.8291 212.342 86.5958 211.947C85.8348 210.21 84.0598 211.344 83.7393 212.402C83.3097 213.495 83.2225 214.354 83.0394 214.323Z" fill="#3A3A3A"/>
<path fill-rule="evenodd" clip-rule="evenodd" d="M82.1098 148.295C81.9921 148.279 81.7566 147.499 82.0487 146.118C82.2014 145.45 82.6985 144.539 83.6885 144.125C84.1638 143.913 84.8224 143.833 85.422 144.112C86.0173 144.379 86.3901 144.908 86.6474 145.348C87.1511 146.296 87.4913 146.866 88.1738 147.106C88.8214 147.36 89.4777 147.271 89.9487 147.005C90.9321 146.445 91.1 145.584 91.2636 145.63C91.39 145.584 91.5906 146.666 90.3979 147.666C89.8201 148.143 88.8105 148.41 87.8314 148.089C87.343 147.935 86.8546 147.64 86.4839 147.204C86.1219 146.777 85.8995 146.311 85.6662 145.918C84.9052 144.179 83.1303 145.313 82.8097 146.371C82.3802 147.466 82.293 148.323 82.1098 148.295Z" fill="#3A3A3A"/>
<path fill-rule="evenodd" clip-rule="evenodd" d="M71.6353 223.089C71.5743 223.191 70.7631 223.096 69.5987 222.285C69.0427 221.879 68.3994 221.069 68.406 220C68.3994 219.481 68.5848 218.848 69.0798 218.41C69.5616 217.975 70.1962 217.84 70.7064 217.779C71.7792 217.695 72.4399 217.608 72.9327 217.079C73.4233 216.587 73.5999 215.954 73.5411 215.418C73.4102 214.3 72.6798 213.805 72.7888 213.673C72.7975 213.541 73.8747 213.784 74.3282 215.269C74.5397 215.984 74.3893 217.01 73.7046 217.782C73.371 218.165 72.9065 218.497 72.3549 218.662C71.8163 218.824 71.2995 218.844 70.846 218.9C68.938 218.909 69.2847 220.977 70.1351 221.689C70.9768 222.515 71.7334 222.931 71.6353 223.089Z" fill="#3A3A3A"/>
<path fill-rule="evenodd" clip-rule="evenodd" d="M33.6075 158.266C33.71 158.208 34.3663 158.696 34.9638 159.977C35.2407 160.606 35.3868 161.627 34.8417 162.551C34.5866 163.002 34.1068 163.457 33.4592 163.589C32.8203 163.726 32.2033 163.524 31.7323 163.322C30.7598 162.861 30.1449 162.605 29.4536 162.817C28.7799 162.997 28.3067 163.459 28.0887 163.951C27.6351 164.983 28.0189 165.775 27.8575 165.835C27.7834 165.946 26.9744 165.196 27.332 163.687C27.5108 162.963 28.1584 162.149 29.1397 161.824C29.6215 161.659 30.1907 161.605 30.751 161.738C31.2962 161.863 31.7541 162.106 32.1771 162.284C33.8321 163.227 34.5757 161.265 34.1984 160.224C33.8866 159.09 33.4418 158.353 33.6075 158.266Z" fill="#3A3A3A"/>
<path fill-rule="evenodd" clip-rule="evenodd" d="M70.3128 151.733C70.4153 151.675 71.0716 152.163 71.6691 153.444C71.946 154.073 72.0921 155.096 71.547 156.018C71.2919 156.468 70.8122 156.924 70.1646 157.056C69.5257 157.193 68.9086 156.991 68.4376 156.789C67.4651 156.328 66.8502 156.072 66.159 156.284C65.4852 156.464 65.012 156.926 64.794 157.418C64.3404 158.45 64.7242 159.242 64.5628 159.302C64.4887 159.413 63.6797 158.665 64.0373 157.154C64.2161 156.429 64.8637 155.616 65.845 155.293C66.3269 155.126 66.896 155.072 67.4564 155.204C68.0015 155.33 68.4594 155.573 68.8824 155.751C70.5374 156.694 71.281 154.732 70.9037 153.691C70.5919 152.557 70.1471 151.82 70.3128 151.733Z" fill="#3A3A3A"/>
<path fill-rule="evenodd" clip-rule="evenodd" d="M47.6849 190.142C47.6064 190.133 47.6194 189.337 47.7088 187.908C47.7982 186.477 47.964 184.411 48.1929 181.861C48.6486 176.764 49.3682 169.722 50.2121 161.969C50.4039 160.043 50.5021 158.17 50.236 156.423C49.9897 154.673 49.3071 153.101 48.315 151.824C46.3133 149.246 43.4721 147.906 41.0561 147.332C38.6074 146.748 36.5207 146.776 35.099 146.815C33.6707 146.865 32.877 146.954 32.8638 146.868C32.8509 146.8 33.6206 146.564 35.0619 146.378C36.4989 146.202 38.6358 146.044 41.2327 146.553C43.7905 147.056 46.8912 148.39 49.1393 151.186C50.2579 152.565 51.0559 154.352 51.3372 156.253C51.6403 158.155 51.5356 160.124 51.3416 162.079C50.4955 169.856 49.6517 176.868 48.991 181.948C48.6595 184.487 48.3717 186.54 48.1471 187.954C47.9247 189.372 47.7634 190.15 47.6849 190.142Z" fill="#3A3A3A"/>
<path fill-rule="evenodd" clip-rule="evenodd" d="M49.1404 188.369C49.173 188.679 41.7223 189.718 32.4965 190.687C23.2708 191.66 15.7655 192.196 15.7327 191.884C15.7001 191.576 23.1509 190.535 32.3788 189.566C41.6002 188.595 49.1076 188.057 49.1404 188.369Z" fill="#3A3A3A"/>
<path fill-rule="evenodd" clip-rule="evenodd" d="M94.5561 184.702C94.1833 184.667 95.9865 178.128 93.9281 170.338C91.9984 162.513 87.2754 157.624 87.5894 157.416C87.6766 157.329 88.974 158.396 90.5833 160.564C92.1925 162.719 94.0001 166.056 95.0293 170.061C96.0454 174.065 96.0563 177.855 95.6769 180.513C95.3019 183.182 94.6761 184.737 94.5561 184.702Z" fill="#3A3A3A" fill-opacity="0.5"/>
<path fill-rule="evenodd" clip-rule="evenodd" d="M181.828 185.229C182.109 183.369 182.054 181.6 183.101 179.961C185.183 176.691 188.151 177.504 191.025 178.942C193.942 180.401 196.688 181.279 199.86 179.913C204.858 177.762 207.071 170.408 202.42 166.854C200.911 165.703 199.359 167.6 199.583 169.022C199.9 171.026 200.881 173.237 199.154 174.959C196.845 177.264 194.134 175.334 191.827 174.298C189.346 173.181 186.712 172.934 184.148 173.962C179.734 175.731 176.527 181.678 180.033 185.7C180.528 186.268 181.71 186.01 181.828 185.229Z" fill="#3A3A3A" fill-opacity="0.5"/>
<path fill-rule="evenodd" clip-rule="evenodd" d="M193.521 99.7996C193.99 102.815 197.136 109.179 200.455 110.057C202.215 110.523 203.523 109.37 204.89 108.433C207.38 106.727 209.84 104.981 212.304 103.236C213.193 102.607 213.721 101.395 213.058 100.381C210.878 97.0439 208.699 93.7071 206.519 90.3725C205.941 89.4901 204.609 88.9458 203.647 89.6245C200.924 91.5389 198.008 93.3147 195.523 95.5305C193.824 97.0482 195.994 99.6326 197.902 98.5962C200.669 97.0916 203.192 95.0405 205.767 93.2301C204.807 92.9808 203.85 92.7314 202.893 92.4821C205.071 95.8167 207.252 99.1535 209.43 102.488C209.683 101.536 209.934 100.582 210.184 99.6305C208.706 100.678 207.223 101.718 205.749 102.77C205.01 103.297 201.986 106.042 201.183 105.862C200.23 105.649 198.693 102.92 198.091 102.206C197.045 100.97 196.066 99.8017 194.714 98.8868C194.064 98.4445 193.425 99.173 193.521 99.7996Z" fill="#3A3A3A" fill-opacity="0.5"/>
<path fill-rule="evenodd" clip-rule="evenodd" d="M162.649 130.903C159.223 134.175 157.919 139.268 161.188 143.196C164.263 146.897 170.217 147.682 174.06 144.734C183.338 137.613 173.667 124.477 163.656 127.196C161.803 127.699 162.265 130.326 164.097 130.43C167.023 130.595 170.156 130.708 172.494 132.746C175.006 134.938 175.06 138.643 173.002 141.163C167.544 147.834 158.066 138.01 163.798 132.046C164.52 131.293 163.406 130.181 162.649 130.903Z" fill="#3A3A3A" fill-opacity="0.5"/>
<path fill-rule="evenodd" clip-rule="evenodd" d="M241.495 161.167C240.314 167.268 239.306 173.382 238.366 179.525C238.142 181.001 239.164 181.999 240.638 181.784C246.441 180.945 252.226 180.171 257.952 178.913C259.053 178.67 259.5 177.322 258.976 176.405C255.732 170.726 251.6 162.815 245.494 159.717C243.948 158.932 241.759 160.629 242.915 162.281C244.731 164.881 247.42 166.83 249.535 169.211C251.971 171.954 254.258 174.904 256.013 178.128C256.506 177.272 257.001 176.416 257.494 175.561C251.497 176.149 245.595 177.222 239.657 178.243C240.438 178.833 241.216 179.423 241.995 180.015C242.71 173.84 243.349 167.676 243.813 161.479C243.914 160.172 241.748 159.864 241.495 161.167Z" fill="#3A3A3A" fill-opacity="0.5"/>
<path fill-rule="evenodd" clip-rule="evenodd" d="M217.508 131.314C217.591 129.403 214.464 128.926 214.104 130.854C212.973 136.914 212.565 143.384 212.519 149.535C212.51 150.816 214.516 151.139 214.809 149.842C216.152 143.865 217.24 137.434 217.508 131.314Z" fill="#3A3A3A" fill-opacity="0.5"/>
<path fill-rule="evenodd" clip-rule="evenodd" d="M299.62 150.144C301.888 150.064 301.803 146.927 299.62 146.701C293.593 146.077 287.226 146.211 281.186 146.645C279.974 146.732 279.492 148.728 280.877 148.921C286.993 149.773 293.445 150.368 299.62 150.144Z" fill="#3A3A3A" fill-opacity="0.5"/>
<path fill-rule="evenodd" clip-rule="evenodd" d="M231.025 71.4294C236.435 74.3304 242.364 77.1577 248.225 79.0331C250.072 79.625 251.326 76.7652 249.56 75.885C244.047 73.1358 237.837 71.0153 231.924 69.3112C230.668 68.9512 229.85 70.7985 231.025 71.4294Z" fill="#3A3A3A" fill-opacity="0.5"/>
<path fill-rule="evenodd" clip-rule="evenodd" d="M248.182 120.758C246.813 119.55 244.564 119.316 243.232 120.758C241.885 122.217 241.935 124.22 243.232 125.682C243.324 125.783 243.415 125.888 243.509 125.992C244.735 127.371 247.262 127.329 248.496 125.992C249.724 124.663 249.97 122.332 248.496 121.033C248.391 120.942 248.287 120.851 248.182 120.758Z" fill="#3A3A3A" fill-opacity="0.5"/>
<path fill-rule="evenodd" clip-rule="evenodd" d="M271.935 101.927C268.418 105.082 267.079 109.993 270.435 113.783C273.595 117.35 279.708 118.107 283.653 115.264C293.181 108.398 283.25 95.73 272.97 98.3518C271.067 98.8369 271.541 101.371 273.422 101.471C276.427 101.63 279.645 101.739 282.047 103.706C284.625 105.818 284.683 109.391 282.567 111.82C276.962 118.253 267.231 108.78 273.115 103.029C273.859 102.303 272.712 101.231 271.935 101.927Z" fill="#7CABFF"/>
<path fill-rule="evenodd" clip-rule="evenodd" d="M48.2508 70.9491C44.8098 69.4095 40.5761 69.7653 37.4465 71.8548C34.3169 73.9443 32.3983 77.6986 32.5507 81.4356C32.6705 84.3553 33.8465 87.6783 31.9714 89.936C30.521 91.6783 27.9337 91.8422 25.856 92.7738C21.9054 94.542 19.9388 99.7152 21.7355 103.623C22.7069 105.738 24.6342 107.685 24.2662 109.979C24.0288 111.465 22.8375 112.64 21.5199 113.389C20.2002 114.135 18.7236 114.562 17.3581 115.222C12.3839 117.632 9.36321 123.233 9.50477 128.714C9.6485 134.196 12.6953 139.397 17.0641 142.767C21.435 146.138 27.0059 147.774 32.5398 147.979C38.0868 148.184 43.8886 146.897 48.1201 143.343C51.2976 140.673 53.3709 136.934 54.8997 133.098C57.8093 125.803 58.9876 117.839 58.3168 110.027C57.6177 101.919 54.9716 94.0611 54.3923 85.9445C54.1985 83.2254 54.2377 80.4695 53.6257 77.8107C53.0137 75.1519 51.6395 72.5233 49.2853 71.1108" fill="#241352"/>
<path fill-rule="evenodd" clip-rule="evenodd" d="M48.4248 70.7545C51.5324 64.1313 57.711 59.1088 64.7121 57.5168C69.0116 56.5392 73.7299 56.8695 77.5075 59.1902C81.2873 61.511 83.8987 66.0381 83.3232 70.5167C82.9667 73.2845 81.502 75.755 80.5721 78.3796C79.6422 81.0064 79.3373 84.208 81.0661 86.3658C82.6166 88.3035 85.2753 88.7813 87.3929 90.0341C90.4167 91.8265 92.3173 95.442 92.1176 99.0178C91.9179 102.594 89.6242 105.963 86.42 107.387C89.6027 107.766 92.5943 109.591 94.4348 112.278C96.2775 114.966 96.9389 118.469 96.2087 121.669C95.1607 126.253 91.527 129.76 87.6184 132.238C82.1893 135.679 75.8925 137.674 69.5142 137.969C62.7449 138.284 55.2477 136.23 51.5646 130.397C49.1485 126.568 48.7791 121.79 48.5086 117.236C47.6903 103.492 47.1298 89.7325 46.5693 75.9752C46.4791 73.7623 46.391 71.5142 46.9 69.3607" fill="#241352"/>
<path fill-rule="evenodd" clip-rule="evenodd" d="M69.5 133.701L131.682 156.184L125.746 131.964L141.917 128C141.917 128 159.311 175.347 147.231 176.614C126.082 178.834 94.0834 170.756 94.0834 170.756L69.5 133.701Z" fill="#FFAFA7"/>
<path fill-rule="evenodd" clip-rule="evenodd" d="M65.5 237.911C65.5 237.911 139.497 156.825 189.453 174.527C239.408 192.232 260.5 274.818 260.5 274.818L220.711 274.17C220.711 274.17 189.288 211.794 173.955 214.209C158.619 216.629 111.263 276 111.263 276L65.5 237.911Z" fill="#019B71"/>
<path fill-rule="evenodd" clip-rule="evenodd" d="M88.4043 189.376L91.5 236.587C75.4228 256.125 19.4531 230.864 19.4531 230.864L18.7999 211.125L17.5 164.111C18.789 145.389 36.3823 136.201 36.3823 136.201C43.6552 132.616 54.7469 130.582 64.7397 131.072C75.1716 131.58 77.7495 136.518 82.0468 145.927C85.5183 153.528 94.9409 165.912 88.4043 189.376Z" fill="#70BFFF"/>
<path fill-rule="evenodd" clip-rule="evenodd" d="M30.8377 239.114C30.8377 239.114 22.316 274.937 48.2898 280.584C74.2637 286.229 169.794 273.021 194.676 275.281C219.558 277.536 290.319 281.802 290.319 281.802L295.5 239.26C295.5 239.26 185.382 233.808 172.937 237.005C160.491 240.197 30.8377 239.114 30.8377 239.114Z" fill="#019B71"/>
<path fill-rule="evenodd" clip-rule="evenodd" d="M42.2539 179C42.2539 179 34.4162 225.196 45.4692 224.058C81.8258 220.319 103.474 219.815 103.474 219.815L109.5 232.328C109.64 234.46 40.6496 254.212 29.5638 247.682C21.737 243.072 9.26794 230.651 14.9279 193.533L16.2652 181.091L42.2539 179Z" fill="#FFAFA7"/>
<path fill-rule="evenodd" clip-rule="evenodd" d="M75.5742 245L75.5 241.852L121.008 235.302L133.087 192.246L183.5 191L169.897 237.602L75.5742 245Z" fill="#70BFFF"/>
<path fill-rule="evenodd" clip-rule="evenodd" d="M157.499 214.902C157.553 217.109 155.805 218.945 153.597 218.999C151.389 219.05 149.555 217.303 149.501 215.096C149.447 212.891 151.195 211.055 153.403 211.001C155.611 210.95 157.445 212.694 157.499 214.902Z" fill="white"/>
<path fill-rule="evenodd" clip-rule="evenodd" d="M158.498 213.366C158.572 216.403 156.169 218.925 153.133 218.998C150.097 219.072 147.575 216.669 147.502 213.632C147.428 210.595 149.831 208.073 152.867 208.002C155.903 207.928 158.425 210.331 158.498 213.366Z" fill="white"/>
<path fill-rule="evenodd" clip-rule="evenodd" d="M22.797 148.413C22.797 148.413 14.3809 156.478 12.5 187L45.0698 183.403C45.0698 183.403 50.4973 131.42 22.797 148.413Z" fill="#70BFFF"/>
<path fill-rule="evenodd" clip-rule="evenodd" d="M262.5 57.5728C262.5 57.5728 274.093 84.3508 277.325 82.9466C280.559 81.5447 310.5 62.438 310.5 62.438C310.5 62.438 298.228 38.4638 295.675 37.0641C293.121 35.6667 262.5 57.5728 262.5 57.5728Z" fill="#019B71"/>
<path fill-rule="evenodd" clip-rule="evenodd" d="M295.484 39.0008C295.629 39.052 294.781 41.5595 293.292 45.5673C291.804 49.5772 289.673 55.0896 287.258 61.1546C287.197 61.304 287.136 61.4535 287.082 61.5927L286.919 62L286.462 61.9304C279.794 60.9049 273.793 59.9224 269.462 59.1609C265.132 58.3995 262.474 57.8591 262.5 57.7158C262.524 57.5725 265.226 57.8529 269.588 58.424C273.951 58.9972 279.974 59.8589 286.644 60.8783L286.026 61.2181C286.08 61.0789 286.139 60.9295 286.199 60.78C288.617 54.715 290.866 49.2436 292.546 45.3033C294.226 41.3609 295.339 38.9496 295.484 39.0008Z" fill="#002C68"/>
<path fill-rule="evenodd" clip-rule="evenodd" d="M273.568 79.9992C273.218 79.9345 274.25 75.8401 275.873 70.8584C277.499 65.8746 279.092 61.9097 279.434 62.0016C279.777 62.0934 278.745 66.1878 277.129 71.1445C275.514 76.099 273.918 80.0639 273.568 79.9992Z" fill="#002C68"/>
<path fill-rule="evenodd" clip-rule="evenodd" d="M308.5 56.9336C308.45 57.131 304.156 56.8738 298.909 56.3566C293.662 55.8422 289.451 55.2639 289.5 55.0665C289.552 54.869 293.844 55.1262 299.093 55.642C304.338 56.1578 308.549 56.7361 308.5 56.9336Z" fill="#002C68"/>
<path fill-rule="evenodd" clip-rule="evenodd" d="M40.0264 85.4082L40.755 95.2819C40.755 95.2819 32.5884 96.4153 34.918 104.073C37.2455 111.731 42.831 108.379 42.831 108.379C42.831 108.379 44.2279 128.003 63.7824 121.781C79.3438 116.83 78.3918 96.1126 76.4168 78.4508C75.6517 71.6084 69.3549 66.9046 62.7787 68.2214L51.0233 70.5766C44.23 71.9353 39.502 78.3116 40.0264 85.4082Z" fill="#FFAFA7"/>
<path fill-rule="evenodd" clip-rule="evenodd" d="M40.5 102L45.8427 131.382C47.0455 138.003 53.3731 142.237 59.7247 140.675C65.61 139.226 69.3795 133.295 68.3227 127.15L65.4226 110.309L40.5 102Z" fill="#FFAFA7"/>
<path fill-rule="evenodd" clip-rule="evenodd" d="M62.521 103.212C62.5775 103.158 62.6972 103.462 62.9655 103.503C63.2274 103.54 63.6266 103.177 63.7236 102.409C63.8578 101.648 63.7834 100.647 63.7026 99.4882C63.6331 98.2427 63.5652 97.0102 63.4941 95.7215C63.2435 90.3721 63.2274 86.0195 63.4601 86C63.6929 85.9806 64.0841 90.3008 64.3347 95.6502C64.3832 96.9432 64.43 98.1757 64.4769 99.4233C64.5109 100.567 64.5432 101.698 64.2943 102.634C64.1003 103.612 63.3486 104.217 62.8798 103.927C62.4304 103.622 62.4903 103.205 62.521 103.212Z" fill="#241352"/>
<path fill-rule="evenodd" clip-rule="evenodd" d="M68.4931 118.03C68.583 118.166 67.7896 119.294 66.1501 120.51C64.5282 121.723 61.9945 122.919 59.0772 122.996C56.16 123.078 53.5868 122.023 51.9276 120.897C50.2509 119.772 49.4224 118.689 49.5057 118.547C49.6526 118.137 53.5408 121.698 59.0531 121.522C64.5655 121.398 68.3353 117.628 68.4931 118.03Z" fill="#241352"/>
<path fill-rule="evenodd" clip-rule="evenodd" d="M64.4763 107.737C64.584 107.822 64.3368 108.497 63.4852 109.148C62.6631 109.793 61.15 110.318 59.5609 109.772C57.978 109.208 57.0292 107.82 56.7059 106.775C56.3635 105.705 56.522 104.998 56.6551 105C56.8221 104.984 56.9531 105.608 57.4096 106.414C57.8512 107.212 58.7008 108.207 59.8969 108.633C61.0972 109.047 62.3186 108.78 63.1069 108.409C63.9078 108.043 64.3495 107.62 64.4763 107.737Z" fill="#241352"/>
<path fill-rule="evenodd" clip-rule="evenodd" d="M40.4741 104.739C40.4757 104.892 40.1141 105.162 39.4736 104.87C39.1671 104.721 38.7618 104.295 38.5883 103.557C38.5007 103.197 38.4618 102.756 38.5494 102.294C38.6191 101.843 38.8964 101.357 39.2028 101.201C39.6212 100.936 40.2065 101.092 40.4773 101.808L39.7606 102.388C39.292 100.543 39.065 99.1293 39.2401 99.0083C39.4136 98.8873 39.9357 100.099 40.5 101.879L39.7833 102.458C39.7671 102.42 39.6487 102.34 39.5028 102.428C39.3455 102.501 39.2742 102.793 39.3277 103.179C39.3796 103.547 39.5368 103.821 39.7282 104.031C40.1157 104.429 40.4838 104.545 40.4741 104.739Z" fill="#241352"/>
<path fill-rule="evenodd" clip-rule="evenodd" d="M69.8233 89.9967C69.5433 90.0413 69.1713 89.6301 68.9913 89.0795C68.8133 88.5288 68.8973 88.0479 69.1773 88.0033C69.4573 87.9587 69.8293 88.3699 70.0073 88.9205C70.1873 89.4712 70.1033 89.9521 69.8233 89.9967Z" fill="#241352"/>
<path fill-rule="evenodd" clip-rule="evenodd" d="M51.8976 90.9951C51.6196 91.0493 51.2176 90.6462 50.9976 90.0972C50.7776 89.5468 50.8256 89.0589 51.1036 89.0047C51.3796 88.9518 51.7816 89.3536 52.0016 89.904C52.2216 90.453 52.1756 90.9409 51.8976 90.9951Z" fill="#241352"/>
<path fill-rule="evenodd" clip-rule="evenodd" d="M54.4911 86.7848C54.3962 87.0668 53.5125 87.0568 52.5339 87.3108C51.5467 87.5348 50.7815 87.9468 50.5508 87.7428C50.3116 87.5708 50.9237 86.6228 52.2494 86.3028C53.5707 85.9768 54.6075 86.5248 54.4911 86.7848Z" fill="#241352"/>
<path fill-rule="evenodd" clip-rule="evenodd" d="M70.4886 82.1732C70.378 82.4452 69.5174 82.3112 68.5099 82.4152C67.5005 82.4952 66.6743 82.7852 66.5216 82.5372C66.3575 82.3152 67.1399 81.4932 68.424 81.3792C69.7082 81.2572 70.6127 81.9252 70.4886 82.1732Z" fill="#241352"/>
<path fill-rule="evenodd" clip-rule="evenodd" d="M39.7095 95.4736C45.135 90.0207 46.7284 80.9363 48.2001 73.2745C53.224 77.047 60.134 77.9742 65.9268 75.6551C67.7445 77.8574 69.8805 79.7823 72.2408 81.3415C72.9137 81.7863 73.7083 82.218 74.4729 81.9801C75.3829 81.6983 75.7887 80.6213 76.0044 79.6655C76.6986 76.6109 76.7243 73.3405 75.6905 70.3872C74.6566 67.4383 72.4886 64.844 69.6498 63.7121C66.6167 62.5008 63.2034 63.0271 60.0528 63.8684C55.3087 65.1369 50.7356 67.086 46.5063 69.6407C42.3539 72.1469 38.3681 75.4657 36.6059 80.0796C34.8459 84.6956 34.8544 93.6678 39.0986 96" fill="#241352"/>
<path fill-rule="evenodd" clip-rule="evenodd" d="M59.0961 110.938C57.5954 110.522 57.1043 108.499 57.8309 107.116C58.5557 105.713 59.5233 104.883 60.0838 105.013C60.6369 105.185 61.2576 106.446 61.4712 108.101C61.694 109.741 60.5968 111.336 59.0961 110.938Z" fill="#241352" fill-opacity="0.2"/>
<path fill-rule="evenodd" clip-rule="evenodd" d="M51.617 102.992C49.2248 103.123 47.3819 101.593 47.5059 99.9524C47.626 98.298 49.3626 97.1221 51.3847 97.0071C53.4068 96.9058 55.2281 97.8953 55.4762 99.5291C55.7242 101.151 54.0093 102.868 51.617 102.992Z" fill="#241352" fill-opacity="0.12"/>
<path fill-rule="evenodd" clip-rule="evenodd" d="M72.6473 101.992C70.2056 102.123 68.3538 100.593 68.5091 98.9521C68.6621 97.2998 70.3831 96.1193 72.3502 96.0065C74.3195 95.9098 76.1469 96.8994 76.4618 98.5287C76.779 100.144 75.0868 101.863 72.6473 101.992Z" fill="#241352" fill-opacity="0.12"/>
<path fill-rule="evenodd" clip-rule="evenodd" d="M40.6852 120C40.3932 119.993 40.2312 116.863 40.0472 113.018C39.8692 109.171 39.7352 106.04 40.0252 106C40.3052 105.959 40.9072 109.064 41.0872 112.959C41.2732 116.854 40.9672 120.009 40.6852 120Z" fill="#6042DD"/>
<path fill-rule="evenodd" clip-rule="evenodd" d="M73.9629 132.2C68.8018 130.101 108.5 145.193 108.5 145.193L104.472 173L89.3729 167.928L73.9629 132.2Z" fill="#70BFFF"/>
<path fill-rule="evenodd" clip-rule="evenodd" d="M48.2501 69.6685C49.4089 67.5097 49.7907 64.7404 49.2745 62.2307C48.8499 60.1633 47.5859 58.1127 45.8603 58.0045C44.8806 57.942 43.9302 58.531 43.2096 59.3556C41.4294 61.3893 40.9717 64.9712 42.1578 67.5818C43.344 70.1925 46.057 71.5796 48.3922 70.7695" fill="#241352"/>
<path fill-rule="evenodd" clip-rule="evenodd" d="M293.892 248.503C293.892 248.503 306.958 229.405 305.365 236.635C303.772 243.865 290.5 276 290.5 276L293.892 248.503Z" fill="#241352"/>
<path fill-rule="evenodd" clip-rule="evenodd" d="M99.851 219.229C99.851 219.229 117.744 213.494 117.129 215.381C116.515 217.266 113.471 217.336 110.427 220.379C110.427 220.379 130.428 220.599 129.466 222.284C128.505 223.966 115.485 224.391 115.406 224.677C115.329 224.965 129.647 225.322 129.326 226.879C129.002 228.437 115.697 228.057 115.697 228.057C115.697 228.057 128.031 229.398 127.778 231.076C127.525 232.756 116.154 231.546 116.154 231.546C116.154 231.546 125.672 232.657 125.423 234.177C125.273 235.104 97.5575 235.313 97.5 235.994C97.4695 236.352 99.851 219.229 99.851 219.229Z" fill="#FFAFA7"/>
<path fill-rule="evenodd" clip-rule="evenodd" d="M126.974 132C126.974 132 115.736 117.423 117.739 117.431C119.743 117.437 120.788 120.182 124.679 122.06C124.679 122.06 118.47 103.832 120.39 104.214C122.313 104.597 126.899 116.297 127.2 116.284C127.498 116.271 123.242 103.162 124.838 103.002C126.432 102.841 130.342 115.035 130.342 115.035C130.342 115.035 127.664 103.443 129.353 103.183C131.045 102.923 133.536 113.603 133.536 113.603C133.536 113.603 131.544 104.635 133.081 104.415C134.016 104.282 142.5 126.528 142.5 126.528C142.277 126.528 126.974 132 126.974 132Z" fill="#FFAFA7"/>
<path fill-rule="evenodd" clip-rule="evenodd" d="M28.0238 174C28.1275 173.989 28.4808 174.72 28.5 176.179C28.4962 176.886 28.2484 177.913 27.4765 178.553C27.1078 178.872 26.5586 179.101 25.9902 178.955C25.4276 178.819 25.0032 178.374 24.6979 177.987C24.0795 177.145 23.6782 176.649 23.0445 176.562C22.4377 176.45 21.8904 176.687 21.539 177.063C20.8016 177.846 20.8246 178.752 20.6749 178.743C20.575 178.814 20.1929 177.772 21.0224 176.497C21.4276 175.888 22.2437 175.392 23.1482 175.494C23.5956 175.539 24.0738 175.725 24.477 176.083C24.8707 176.43 25.151 176.848 25.4276 177.192C26.4223 178.772 27.7242 177.23 27.7953 176.094C27.9527 174.895 27.8605 174.014 28.0238 174Z" fill="#FCF2FC"/>
<path fill-rule="evenodd" clip-rule="evenodd" d="M36.5078 165.114C36.4385 165.015 36.8247 164.255 37.9834 163.452C38.5523 163.074 39.5158 162.778 40.4667 163.225C40.9327 163.433 41.4281 163.875 41.6359 164.54C41.8458 165.193 41.7303 165.872 41.5939 166.395C41.2706 167.481 41.1027 168.164 41.3924 168.866C41.6464 169.549 42.1481 169.985 42.6497 170.144C43.6951 170.48 44.4088 169.968 44.4865 170.131C44.6019 170.193 43.9827 171.147 42.4902 170.98C41.7723 170.892 40.9096 170.32 40.4772 169.332C40.2589 168.845 40.1371 168.252 40.1938 167.646C40.2484 167.053 40.4226 166.539 40.5401 166.069C41.2433 164.195 39.266 163.683 38.313 164.223C37.2655 164.707 36.6106 165.276 36.5078 165.114Z" fill="#FCF2FC"/>
<path fill-rule="evenodd" clip-rule="evenodd" d="M36.5078 144.115C36.4385 144.013 36.8247 143.256 37.9813 142.453C38.5502 142.075 39.5158 141.776 40.4667 142.226C40.9327 142.434 41.4281 142.876 41.6338 143.541C41.8458 144.194 41.7303 144.872 41.5939 145.396C41.2706 146.482 41.1006 147.165 41.3924 147.864C41.6464 148.549 42.1481 148.985 42.6476 149.145C43.6951 149.48 44.4088 148.969 44.4865 149.131C44.6019 149.193 43.9827 150.147 42.4881 149.98C41.7702 149.89 40.9096 149.318 40.4772 148.332C40.2589 147.846 40.1371 147.253 40.1917 146.646C40.2463 146.053 40.4226 145.539 40.5401 145.069C41.2412 143.196 39.266 142.684 38.313 143.221C37.2634 143.708 36.6106 144.277 36.5078 144.115Z" fill="#FCF2FC"/>
<path fill-rule="evenodd" clip-rule="evenodd" d="M58.0049 171.99C57.9059 172.062 57.0819 171.751 56.1299 170.712C55.6805 170.199 55.2746 169.304 55.6443 168.364C55.8134 167.904 56.2242 167.399 56.8935 167.152C57.5507 166.902 58.2659 166.962 58.824 167.052C59.9863 167.277 60.7136 167.387 61.4119 167.058C62.0981 166.763 62.4992 166.252 62.6176 165.764C62.8616 164.741 62.2575 164.102 62.417 164.015C62.4726 163.901 63.5261 164.418 63.4995 165.853C63.4802 166.543 62.9728 167.405 61.9893 167.892C61.5061 168.137 60.9044 168.298 60.2666 168.29C59.6432 168.283 59.0923 168.155 58.5921 168.079C56.5745 167.551 56.2411 169.473 56.8959 170.337C57.5048 171.3 58.162 171.88 58.0049 171.99Z" fill="#FCF2FC"/>
<path fill-rule="evenodd" clip-rule="evenodd" d="M72.4942 193.183C72.5579 193.286 72.1029 193.985 70.8389 194.673C70.2168 194.993 69.1902 195.202 68.2273 194.695C67.7547 194.458 67.2689 193.992 67.0974 193.333C66.9238 192.688 67.093 192.043 67.2733 191.55C67.6844 190.524 67.9086 189.878 67.6558 189.182C67.436 188.5 66.9435 188.041 66.4313 187.846C65.363 187.441 64.5826 187.88 64.5123 187.718C64.3957 187.647 65.1102 186.775 66.6578 187.055C67.4008 187.196 68.2603 187.815 68.6428 188.803C68.8363 189.289 68.9242 189.869 68.8231 190.452C68.7241 191.019 68.5043 191.503 68.3482 191.946C67.4843 193.696 69.5133 194.35 70.5465 193.902C71.6742 193.517 72.3975 193.019 72.4942 193.183Z" fill="#FCF2FC"/>
<path fill-rule="evenodd" clip-rule="evenodd" d="M89.4942 159.184C89.5579 159.287 89.1029 159.988 87.8389 160.674C87.2168 160.992 86.1902 161.202 85.2273 160.696C84.7547 160.459 84.2689 159.992 84.0974 159.336C83.9238 158.688 84.093 158.043 84.2733 157.55C84.6844 156.526 84.9086 155.881 84.6558 155.182C84.436 154.501 83.9435 154.041 83.4313 153.846C82.363 153.441 81.5826 153.878 81.5123 153.719C81.3957 153.647 82.1102 152.775 83.6578 153.055C84.4008 153.196 85.2603 153.815 85.6428 154.803C85.8385 155.289 85.9242 155.87 85.8231 156.452C85.7241 157.019 85.5043 157.503 85.3482 157.947C84.4843 159.699 86.5133 160.349 87.5465 159.903C88.6742 159.517 89.3975 159.02 89.4942 159.184Z" fill="#FCF2FC"/>
<path fill-rule="evenodd" clip-rule="evenodd" d="M99.4534 155.021C99.5306 154.93 100.383 155.118 101.513 156.042C102.049 156.503 102.627 157.364 102.475 158.396C102.412 158.897 102.129 159.486 101.544 159.849C100.97 160.212 100.277 160.265 99.7249 160.26C98.5709 160.214 97.8546 160.216 97.2601 160.668C96.6702 161.084 96.3963 161.675 96.387 162.201C96.3753 163.296 97.0869 163.862 96.9534 163.976C96.9253 164.105 95.8112 163.738 95.5279 162.249C95.4015 161.531 95.6988 160.558 96.5321 159.897C96.9394 159.566 97.4801 159.304 98.0887 159.209C98.6833 159.118 99.2357 159.163 99.7296 159.161C101.761 159.384 101.672 157.345 100.862 156.553C100.076 155.654 99.327 155.16 99.4534 155.021Z" fill="#FCF2FC"/>
<path fill-rule="evenodd" clip-rule="evenodd" d="M53.4942 211.184C53.5579 211.287 53.1029 211.986 51.8389 212.674C51.2168 212.992 50.1902 213.202 49.2274 212.696C48.7547 212.456 48.2689 211.992 48.0974 211.334C47.9238 210.688 48.093 210.043 48.2711 209.55C48.6844 208.524 48.9086 207.879 48.6558 207.182C48.436 206.501 47.9436 206.041 47.4314 205.846C46.3608 205.441 45.5804 205.88 45.5123 205.719C45.3958 205.647 46.108 204.775 47.6578 205.055C48.4008 205.196 49.2603 205.815 49.6428 206.803C49.8363 207.289 49.922 207.87 49.8231 208.452C49.7242 209.019 49.5043 209.503 49.3483 209.944C48.4843 211.697 50.5133 212.349 51.5443 211.903C52.6742 211.517 53.3975 211.02 53.4942 211.184Z" fill="#FCF2FC"/>
<path fill-rule="evenodd" clip-rule="evenodd" d="M78.4854 177.993C78.3827 178.061 77.6499 177.644 76.8965 176.444C76.5426 175.854 76.2846 174.864 76.7572 173.906C76.9787 173.439 77.433 172.947 78.0928 172.755C78.7434 172.558 79.4078 172.697 79.9192 172.851C80.9785 173.21 81.6451 173.403 82.346 173.127C83.0286 172.887 83.4761 172.389 83.6519 171.884C84.0172 170.828 83.5354 170.088 83.6975 170.013C83.766 169.897 84.6838 170.554 84.4669 172.07C84.355 172.8 83.7637 173.66 82.7752 174.072C82.2889 174.282 81.7022 174.389 81.104 174.314C80.5219 174.241 80.0196 174.047 79.563 173.914C77.7412 173.144 77.1681 175.142 77.6681 176.128C78.1087 177.21 78.6475 177.892 78.4854 177.993Z" fill="#FCF2FC"/>
<path fill-rule="evenodd" clip-rule="evenodd" d="M83.4842 194.993C83.3837 195.06 82.6486 194.645 81.8953 193.443C81.5437 192.854 81.2835 191.862 81.7583 190.906C81.9775 190.437 82.4318 189.948 83.0938 189.755C83.7444 189.558 84.4064 189.695 84.9178 189.851C85.9771 190.211 86.6459 190.403 87.3445 190.127C88.0271 189.886 88.4745 189.389 88.6503 188.885C89.0155 187.826 88.5362 187.088 88.696 187.013C88.7644 186.897 89.6821 187.552 89.4676 189.068C89.3557 189.798 88.7622 190.66 87.7737 191.073C87.2897 191.282 86.7007 191.387 86.1026 191.312C85.5205 191.239 85.0205 191.047 84.5617 190.914C82.74 190.144 82.167 192.142 82.6669 193.128C83.1075 194.21 83.6485 194.893 83.4842 194.993Z" fill="#FCF2FC"/>
<path fill-rule="evenodd" clip-rule="evenodd" d="M47.691 188.999C47.5789 188.982 47.3568 188.09 47.6329 186.504C47.7803 185.739 48.2515 184.698 49.194 184.221C49.6487 183.977 50.2735 183.885 50.8444 184.206C51.4112 184.514 51.7682 185.118 52.0111 185.625C52.4907 186.708 52.8145 187.362 53.4643 187.637C54.0829 187.931 54.7057 187.826 55.1541 187.521C56.0904 186.88 56.2503 185.893 56.408 185.945C56.5284 185.896 56.7173 187.136 55.5839 188.281C55.0337 188.825 54.0726 189.133 53.1384 188.763C52.6734 188.589 52.2083 188.251 51.8554 187.749C51.5108 187.262 51.2991 186.728 51.0769 186.276C50.3524 184.285 48.6647 185.585 48.3574 186.795C47.9484 188.05 47.8654 189.034 47.691 188.999Z" fill="#FCF2FC"/>
<path fill-rule="evenodd" clip-rule="evenodd" d="M79.692 210.999C79.5798 210.982 79.3556 210.09 79.6338 208.504C79.7792 207.739 80.2525 206.698 81.1951 206.221C81.6477 205.977 82.2747 205.885 82.8456 206.206C83.4124 206.514 83.7674 207.118 84.0124 207.625C84.492 208.708 84.8158 209.362 85.4657 209.637C86.0823 209.931 86.7072 209.826 87.1556 209.521C88.092 208.88 88.2518 207.893 88.4075 207.945C88.5279 207.896 88.7189 209.136 87.5833 210.281C87.0331 210.825 86.0719 211.133 85.1397 210.763C84.6747 210.589 84.2096 210.251 83.8567 209.749C83.512 209.262 83.3003 208.728 83.0781 208.276C82.3536 206.285 80.6636 207.585 80.3584 208.798C79.9494 210.05 79.8664 211.034 79.692 210.999Z" fill="#FCF2FC"/>
<path fill-rule="evenodd" clip-rule="evenodd" d="M79.692 143.999C79.5798 143.982 79.3556 143.087 79.6338 141.504C79.7792 140.739 80.2525 139.695 81.1951 139.221C81.6477 138.977 82.2747 138.885 82.8456 139.206C83.4124 139.512 83.7674 140.118 84.0124 140.622C84.492 141.708 84.8158 142.362 85.4657 142.638C86.0823 142.928 86.7072 142.826 87.1556 142.521C88.092 141.88 88.2518 140.893 88.4075 140.945C88.5279 140.893 88.7189 142.133 87.5833 143.279C87.0331 143.825 86.0719 144.131 85.1397 143.763C84.6747 143.587 84.2096 143.249 83.8567 142.749C83.512 142.26 83.3003 141.726 83.0781 141.276C82.3536 139.283 80.6636 140.583 80.3584 141.795C79.9494 143.05 79.8664 144.032 79.692 143.999Z" fill="#FCF2FC"/>
<path fill-rule="evenodd" clip-rule="evenodd" d="M68.2607 218.968C68.1896 219.065 67.245 218.975 65.8891 218.205C65.2416 217.82 64.4926 217.05 64.5002 216.035C64.4926 215.544 64.7084 214.943 65.2848 214.527C65.846 214.113 66.5849 213.986 67.179 213.928C68.4283 213.848 69.1977 213.765 69.7715 213.263C70.3428 212.796 70.5485 212.195 70.48 211.687C70.3276 210.625 69.477 210.155 69.6039 210.03C69.6141 209.904 70.8684 210.135 71.3966 211.545C71.6429 212.224 71.4677 213.197 70.6704 213.93C70.2819 214.294 69.7411 214.609 69.0986 214.766C68.4715 214.92 67.8697 214.938 67.3415 214.992C65.1198 215 65.5235 216.964 66.5138 217.639C67.4939 218.423 68.375 218.818 68.2607 218.968Z" fill="#FCF2FC"/>
<path fill-rule="evenodd" clip-rule="evenodd" d="M30.8904 153.005C30.9932 152.943 31.6521 153.458 32.2518 154.809C32.5298 155.473 32.6764 156.55 32.1292 157.524C31.8731 158 31.3916 158.48 30.7415 158.619C30.1002 158.764 29.4808 158.551 29.0081 158.338C28.0319 157.851 27.4146 157.581 26.7208 157.805C26.0445 157.995 25.5695 158.482 25.3506 159.001C24.8954 160.09 25.2806 160.925 25.1186 160.989C25.0442 161.105 24.2322 160.314 24.5911 158.722C24.7706 157.958 25.4207 157.101 26.4056 156.758C26.8893 156.584 27.4606 156.527 28.0231 156.666C28.5703 156.799 29.0299 157.055 29.4546 157.243C31.1158 158.238 31.8622 156.168 31.4835 155.07C31.1705 153.874 30.724 153.096 30.8904 153.005Z" fill="#FCF2FC"/>
<path fill-rule="evenodd" clip-rule="evenodd" d="M66.8904 148.005C66.9933 147.943 67.6521 148.458 68.2518 149.809C68.5298 150.473 68.6764 151.552 68.1292 152.524C67.8731 153 67.3916 153.48 66.7415 153.619C66.1002 153.763 65.4808 153.551 65.008 153.338C64.0319 152.851 63.4146 152.581 62.7208 152.805C62.0445 152.995 61.5695 153.482 61.3506 154.001C60.8954 155.09 61.2806 155.925 61.1186 155.989C61.0442 156.105 60.2322 155.316 60.5911 153.722C60.7706 152.958 61.4207 152.101 62.4056 151.76C62.8893 151.584 63.4606 151.527 64.0231 151.666C64.5703 151.799 65.0299 152.055 65.4546 152.243C67.1158 153.237 67.8622 151.168 67.4835 150.07C67.1705 148.874 66.724 148.096 66.8904 148.005Z" fill="#FCF2FC"/>
<path fill-rule="evenodd" clip-rule="evenodd" d="M44.588 187C44.5081 186.991 44.5214 186.158 44.6124 184.662C44.7034 183.163 44.8721 181 45.1052 178.33C45.5691 172.993 46.3016 165.62 47.1607 157.502C47.356 155.486 47.4559 153.524 47.1851 151.695C46.9343 149.863 46.2395 148.217 45.2295 146.88C43.1917 144.181 40.2994 142.778 37.8399 142.176C35.3471 141.565 33.2227 141.595 31.7754 141.636C30.3215 141.688 29.5135 141.781 29.5 141.69C29.4869 141.62 30.2704 141.372 31.7377 141.177C33.2005 140.993 35.3759 140.828 38.0197 141.361C40.6235 141.888 43.78 143.284 46.0686 146.212C47.2073 147.656 48.0197 149.527 48.3061 151.518C48.6146 153.509 48.5081 155.57 48.3105 157.617C47.4493 165.76 46.5902 173.102 45.9176 178.421C45.5802 181.079 45.2872 183.229 45.0586 184.709C44.8322 186.194 44.6679 187.009 44.588 187Z" fill="#241352"/>
<path fill-rule="evenodd" clip-rule="evenodd" d="M47.5 185.048C47.5332 185.216 39.9503 185.779 30.561 186.304C21.1718 186.831 13.5334 187.121 13.5 186.952C13.4668 186.785 21.0497 186.221 30.4412 185.696C39.826 185.17 47.4666 184.879 47.5 185.048Z" fill="#241352"/>
<path fill-rule="evenodd" clip-rule="evenodd" d="M90.2033 179.999C89.8453 179.965 91.5767 173.495 89.6004 165.788C87.7476 158.048 83.2129 153.209 83.5143 153.005C83.5981 152.917 84.8438 153.975 86.3888 156.12C87.9339 158.252 89.6695 161.553 90.6576 165.515C91.6332 169.478 91.6437 173.227 91.2794 175.855C90.9193 178.496 90.3185 180.036 90.2033 179.999Z" fill="#241352"/>
<path fill-rule="evenodd" clip-rule="evenodd" d="M176.733 180.243C177.009 178.431 176.956 176.708 177.985 175.111C180.034 171.927 182.953 172.719 185.78 174.119C188.65 175.54 191.35 176.393 194.471 175.065C199.387 172.97 201.564 165.807 196.989 162.346C195.505 161.224 193.978 163.072 194.199 164.457C194.51 166.409 195.475 168.563 193.776 170.239C191.505 172.484 188.838 170.605 186.569 169.595C184.128 168.508 181.537 168.267 179.015 169.268C174.674 170.991 171.518 176.784 174.967 180.701C175.454 181.255 176.617 181.003 176.733 180.243Z" fill="#7E2E84"/>
<path fill-rule="evenodd" clip-rule="evenodd" d="M189.509 95.5583C189.958 98.5967 192.971 105.008 196.148 105.892C197.833 106.362 199.085 105.2 200.394 104.256C202.778 102.537 205.133 100.779 207.492 99.0204C208.344 98.387 208.849 97.1659 208.215 96.1437C206.127 92.782 204.041 89.4203 201.954 86.0608C201.401 85.1718 200.125 84.6235 199.204 85.3072C196.597 87.236 193.806 89.025 191.426 91.2573C189.799 92.7864 191.877 95.3901 193.703 94.346C196.353 92.83 198.768 90.7637 201.234 88.9398C200.315 88.6886 199.398 88.4374 198.482 88.1862C200.568 91.5457 202.655 94.9073 204.741 98.2668C204.983 97.3079 205.223 96.3468 205.463 95.3879C204.048 96.4429 202.628 97.4914 201.217 98.5508C200.509 99.0816 197.614 101.847 196.845 101.666C195.933 101.452 194.461 98.7015 193.885 97.9829C192.883 96.7378 191.946 95.5604 190.651 94.6387C190.029 94.1931 189.417 94.927 189.509 95.5583Z" fill="#FBC580"/>
<path fill-rule="evenodd" clip-rule="evenodd" d="M159.935 126.927C156.418 130.082 155.079 134.993 158.435 138.781C161.592 142.35 167.708 143.107 171.653 140.264C181.181 133.398 171.25 120.73 160.97 123.352C159.067 123.837 159.541 126.371 161.422 126.471C164.427 126.63 167.645 126.739 170.045 128.704C172.625 130.818 172.681 134.391 170.567 136.82C164.962 143.254 155.229 133.78 161.115 128.029C161.857 127.303 160.712 126.231 159.935 126.927Z" fill="#7CABFF"/>
<path fill-rule="evenodd" clip-rule="evenodd" d="M237.53 156.7C236.397 162.995 235.431 169.302 234.53 175.639C234.314 177.163 235.295 178.191 236.708 177.97C242.271 177.104 247.818 176.306 253.308 175.008C254.364 174.758 254.792 173.367 254.291 172.421C251.18 166.562 247.218 158.4 241.364 155.204C239.882 154.394 237.783 156.145 238.891 157.85C240.632 160.532 243.21 162.543 245.238 164.999C247.573 167.828 249.766 170.873 251.449 174.199C251.922 173.315 252.397 172.432 252.869 171.55C247.12 172.157 241.46 173.264 235.767 174.317C236.516 174.926 237.262 175.534 238.009 176.145C238.694 169.774 239.307 163.415 239.752 157.022C239.848 155.674 237.772 155.356 237.53 156.7Z" fill="#FF7081"/>
<path fill-rule="evenodd" clip-rule="evenodd" d="M210.253 145.175C211.867 139.21 213.176 132.794 213.498 126.686C213.598 124.78 209.838 124.305 209.406 126.228C208.045 132.274 207.555 138.73 207.5 144.868C207.49 146.146 209.901 146.468 210.253 145.175Z" fill="#FF957E"/>
<path fill-rule="evenodd" clip-rule="evenodd" d="M277.292 144.378C283.047 145.466 289.119 146.225 294.929 145.94C297.063 145.837 296.983 141.831 294.929 141.543C289.258 140.746 283.267 140.918 277.583 141.471C276.442 141.582 275.989 144.132 277.292 144.378Z" fill="#FBC580"/>
<path fill-rule="evenodd" clip-rule="evenodd" d="M228.042 67.978C233.193 70.6292 238.839 73.213 244.42 74.9269C246.179 75.4679 247.373 72.8543 245.691 72.0499C240.442 69.5374 234.528 67.5995 228.897 66.0421C227.701 65.7132 226.922 67.4014 228.042 67.978Z" fill="#FF7081"/>
<path fill-rule="evenodd" clip-rule="evenodd" d="M245.383 116.403C245.268 116.302 245.153 116.202 245.038 116.099C243.531 114.766 241.057 114.507 239.591 116.099C238.109 117.709 238.164 119.92 239.591 121.533C239.692 121.646 239.793 121.761 239.896 121.876C241.244 123.397 244.025 123.352 245.383 121.876C246.734 120.409 247.005 117.836 245.383 116.403Z" fill="#241352"/>
<path fill-rule="evenodd" clip-rule="evenodd" d="M110.117 5.59254C104.032 7.69157 98.9963 12.8736 96.7927 19.2062C94.5892 25.5411 95.2408 32.8888 98.4565 38.7216C104.645 49.9519 120.536 53.568 130.576 46.0315C140.615 38.495 142.555 21.4918 134.498 11.6631C126.438 1.83651 110.187 1.38339 101.647 10.7501" fill="#CCF0E6"/>
</svg>
